<?xml version="1.0" encoding="utf-8"?>
<!-- Generator: Adobe Illustrator 21.0.0, SVG Export Plug-In . SVG Version: 6.00 Build 0)  -->
<svg version="1.1" id="Layer_1" xmlns="http://www.w3.org/2000/svg" xmlns:xlink="http://www.w3.org/1999/xlink" x="0px" y="0px"
	 viewBox="0 0 1040 366.7" style="enable-background:new 0 0 1040 366.7;" xml:space="preserve">
<style type="text/css">
	.st0{fill:#BB2326;}
	.st1{fill:#FFFFFF;}
	.st2{fill:#EF4F50;}
	.st3{fill:#F16A28;}
	.st4{fill:#ED3434;}
	.st5{fill:#F9A63F;}
	.st6{fill:#C92027;}
	.st7{fill:#5B0A12;}
	.st8{fill:#FBF5E4;}
	.st9{fill:#F48048;}
	.st10{fill:none;stroke:url(#SVGID_1_);stroke-width:7;stroke-miterlimit:10;}
	.st11{fill:none;stroke:url(#SVGID_2_);stroke-width:7;stroke-miterlimit:10;}
	.st12{fill:none;stroke:url(#SVGID_3_);stroke-width:7;stroke-miterlimit:10;}
	.st13{fill:none;stroke:url(#SVGID_4_);stroke-width:7;stroke-miterlimit:10;}
	.st14{fill:none;stroke:url(#SVGID_5_);stroke-width:7;stroke-miterlimit:10;}
	.st15{fill:none;stroke:url(#SVGID_6_);stroke-width:7;stroke-miterlimit:10;}
	.st16{fill:none;stroke:url(#SVGID_7_);stroke-width:7;stroke-miterlimit:10;}
	.st17{fill:none;stroke:url(#SVGID_8_);stroke-width:7;stroke-miterlimit:10;}
	.st18{fill:none;stroke:url(#SVGID_9_);stroke-width:7;stroke-miterlimit:10;}
	.st19{fill:none;stroke:url(#SVGID_10_);stroke-width:7;stroke-miterlimit:10;}
	.st20{fill:none;stroke:url(#SVGID_11_);stroke-width:7;stroke-miterlimit:10;}
	.st21{fill:#FCBB51;}
	.st22{fill:#F8D9B2;}
	.st23{fill:none;stroke:url(#SVGID_12_);stroke-width:7;stroke-miterlimit:10;}
	.st24{clip-path:url(#SVGID_14_);}
	.st25{clip-path:url(#SVGID_16_);}
	.st26{clip-path:url(#SVGID_18_);}
	.st27{fill:url(#SVGID_19_);}
	.st28{fill:#9A1B1F;}
	.st29{fill:none;stroke:url(#SVGID_20_);stroke-width:7;stroke-miterlimit:10;}
	.st30{fill:none;stroke:url(#SVGID_21_);stroke-width:7;stroke-miterlimit:10;}
	.st31{fill:none;stroke:url(#SVGID_22_);stroke-width:7;stroke-miterlimit:10;}
	.st32{fill:none;stroke:url(#SVGID_23_);stroke-width:7;stroke-miterlimit:10;}
	.st33{fill:none;stroke:url(#SVGID_24_);stroke-width:7;stroke-miterlimit:10;}
	.st34{fill:none;stroke:url(#SVGID_25_);stroke-width:7;stroke-miterlimit:10;}
	.st35{fill:none;stroke:url(#SVGID_26_);stroke-width:7;stroke-miterlimit:10;}
	.st36{fill:none;stroke:url(#SVGID_27_);stroke-width:7;stroke-miterlimit:10;}
	.st37{fill:none;stroke:url(#SVGID_28_);stroke-width:7;stroke-miterlimit:10;}
	.st38{fill:none;stroke:url(#SVGID_29_);stroke-width:7;stroke-miterlimit:10;}
	.st39{fill:none;stroke:url(#SVGID_30_);stroke-width:7;stroke-miterlimit:10;}
	.st40{fill:none;stroke:url(#SVGID_31_);stroke-width:7;stroke-miterlimit:10;}
	.st41{clip-path:url(#SVGID_33_);}
	.st42{clip-path:url(#SVGID_35_);}
	.st43{clip-path:url(#SVGID_37_);}
	.st44{clip-path:url(#SVGID_39_);}
	.st45{clip-path:url(#SVGID_41_);}
	.st46{clip-path:url(#SVGID_43_);}
	.st47{fill:url(#SVGID_44_);}
	.st48{clip-path:url(#SVGID_46_);}
	.st49{clip-path:url(#SVGID_48_);}
</style>
<g>
	<path class="st1" d="M435.4,109c-16.2-8.2-35.9-15.9-51.7-7c-5.8,3.2-12,8.7-18,6.8c-0.5,1.3-1.1,2.5-1.9,3.7
		c-4.5,7-12.7,11.5-21,11.5c-5,0-10.4-1.9-13.2-6.1c-2.8-4.2-1.7-11,3-13c-1.6,3.6,1,8.2,4.8,9.3c3.8,1.1,8-0.7,10.5-3.8
		c2.4-3.1,3.3-7.2,3.2-11.1c-0.2-6.5-3.2-12.9-7.8-17.5c-10.4-5.1-23.9-4.5-32.5,3.4c-2.8-9-15.4-13-22.9-7.3
		c-0.8-11.7-10.9-21.5-22.3-24.2c-11.4-2.8-23.6,0.4-33.8,6.3c-10.2,5.8-18.7,14.1-27.2,22.3c-6.4-5.4-16.1-6.6-23.6-2.9
		c-7.5,3.7-12.5,12.1-12.1,20.5c-6.8,10.7-21.4,13.4-34.1,12.5c-12.7-0.9-25.5-4.3-38-1.8C85.4,113,75.7,120,65,124.4
		c-10.7,4.4-24.2,5.7-32.7-2.2c10.7,10.7,27,15.5,41.8,12.3c12.2-2.7,25.7-10.1,36.2-3.3c9.1,5.9,9.6,18.9,15.4,28.1
		c4.6,7.3,13.1,12,21.7,12.2c8.6,0.1,17.2-4.3,22.1-11.4c13.2,10.9,35.1,8.7,45.9-4.5c2.6,2.6,5.1,5.1,7.7,7.7
		c-7.1,10.6-4.2,26.6,6.2,34c7.7,5.5,18.6,5.4,26.8,0.8c-2.6-4.5-4-9.7-3.8-14.9c0.4-9.3,6-18.3,14.4-22.3c8.4-4,19.2-2.6,26,3.7
		c3.2,3,5.6,7,5.9,11.4c0.3,4.4-1.7,9-5.4,11.2c-3.7,2.3-9.1,1.7-11.9-1.6c-2.8-3.4-1.9-9.2,1.9-11.3c-2.8,1.9-2.7,6.7,0,8.9
		c2.7,2.1,7,1.5,9.3-1c2.3-2.5,2.7-6.5,1.5-9.7c-1.3-3.2-4.1-5.6-7.2-7.1c-5-2.3-11-2.2-15.9,0.3c-4.9,2.5-8.5,7.3-9.5,12.7
		c-0.9,4.7,0.2,9.4,2.4,13.7c10.2,12.4,29.8,15.8,43.5,7.3c13.8-8.5,19.6-27.9,12.7-42.6c6.4,7.1,17,10.1,26.2,7.4
		c9.2-2.7,16.4-11.1,17.9-20.6c7.6,3.8,16.8-1.1,22.7-7.2c5.9-6.1,10.6-13.8,18.2-17.8c8.6-4.5,19.2-3,28.4,0
		c9.2,3.1,18.1,7.6,27.7,9.1c9.6,1.5,20.7-0.8,26.2-8.9C470.4,125.9,451.6,117.2,435.4,109z"/>
	<path class="st1" d="M875.8,218.2c-14.3,3.1-30.1,11.9-42.4,3.9c-10.6-6.9-11.2-22.2-18-32.9c-5.4-8.5-15.3-14.1-25.4-14.2
		c-4-0.1-8,0.7-11.7,2.2c-0.2,0.2-0.3,0.4-0.5,0.5c-3.3,2.6-5.9,6.3-6.7,10.4c-0.9,4.1,0.1,8.7,3,11.7c2.9,3,7.8,4.2,11.5,2.3
		c3.8-1.9,5.7-6.9,3.9-10.7c4.7,1.2,6.7,7.5,4.6,11.9c-2.1,4.4-6.9,6.9-11.6,7.9c-5.1,1-11,0.4-14.8-3.2c-4.3-4.2-4.7-11-3.8-16.9
		c0.2-1.1,0.4-2.3,0.7-3.4c-0.2,0.2-0.3,0.4-0.5,0.6c-15.5-12.7-41.2-10.2-53.8,5.3c-3-3-6-6-9-9c8.4-12.4,4.9-31.2-7.3-39.8
		c-12.2-8.6-31.1-5.5-39.9,6.5c-11.8-14.9-35.1-19-51.3-9c-6.7,4.2-11.8,10.5-14.9,17.8c-0.7,9.2,1.8,18.9,8.3,25.3
		c7.2,7.1,19.9,8.9,27.6,2.3c2.6-2.2,4.6-5.4,4.9-8.8c0.3-3.4-1.3-7.1-4.3-8.8c-3-1.7-7.3-1-9.2,1.8c-1.9,2.9-0.6,7.5,2.7,8.5
		c-4.6,0.8-9.3-3-10.1-7.6c-0.8-4.6,1.9-9.4,6-11.7c4.1-2.3,9.2-2.3,13.6-0.6c4.4,1.7,8,4.8,11,8.5c3.7,4.6,6.4,10.3,5.8,16.2
		c-0.7,6.3-5.2,11.7-10.5,15.2c-11.4,7.4-27.4,6.8-38.3-1.3c-3.7-2.8-6.7-6.3-8.9-10.4c0.4,1.2,0.9,2.4,1.4,3.5
		c-7.5-8.3-20-11.9-30.7-8.6c-10.8,3.2-19.2,13-20.9,24.1c-8.9-4.5-19.7,1.2-26.6,8.4c-6.9,7.2-12.4,16.2-21.3,20.8
		c-10.1,5.3-22.5,3.5-33.3,0c-10.8-3.6-21.2-8.9-32.5-10.7c-11.3-1.8-24.3,1-30.7,10.4c19.5-8.4,41.6,1.8,60.6,11.4
		c19,9.6,42.1,18.6,60.6,8.2c7.2-4,15-11,22.5-7.5c5.7,2.7,7.1,9.9,9.6,15.6c8.4,19.6,37.8,25.9,53.5,11.4
		c3.2,10.5,18.1,15.2,26.8,8.5c0.9,13.7,12.8,25.2,26.1,28.4c13.4,3.3,27.7-0.5,39.6-7.3c12-6.8,22-16.5,31.8-26.1
		c7.5,6.3,18.9,7.7,27.7,3.4c8.8-4.4,14.6-14.2,14.2-24c8-12.6,25.1-15.7,39.9-14.7c14.9,1,29.9,5.1,44.5,2.1
		c13.3-2.7,24.7-10.9,37.2-16c12.5-5.2,28.4-6.7,38.3,2.5C912.2,220,893.1,214.4,875.8,218.2z"/>
	<path class="st1" d="M979.1,102.5c-8.4,1.8-17.6,7-24.8,2.3c-6.2-4.1-6.6-13-10.5-19.2c-3.2-5-9-8.2-14.9-8.3
		c-5.9-0.1-11.8,2.9-15.2,7.8c-9-7.5-24.1-6-31.5,3.1c-1.8-1.8-3.5-3.5-5.3-5.3c4.9-7.2,2.9-18.2-4.2-23.3
		c-6.3-4.5-15.8-3.6-21.4,1.7c1.8,2.5,3,5.5,3.8,8.4c1.1,4.8,1.2,9.9-0.7,14.4c-1.9,4.5-5.9,8.2-10.8,9c-4.8,0.8-10.2-2-11.8-6.6
		c-0.7-2.2-0.5-4.9,1.1-6.5c1.6-1.6,4.8-1.6,6,0.4c-1.8,0-3,2.4-2.2,4.1c0.8,1.7,2.9,2.3,4.7,1.9c1.8-0.5,3.2-1.8,4.2-3.4
		c3.8-5.9,1.7-14.2-3.2-19.2c-4.8-4.9-11.8-7-18.6-7.7c-1.5,0.5-3,1.2-4.4,2c-9.5,5.8-13.4,19.1-8.7,29.2c-4.4-4.9-11.7-6.9-18-5.1
		c-6.3,1.9-11.3,7.6-12.2,14.1c-5.2-2.6-11.5,0.7-15.6,4.9c-4.1,4.2-7.3,9.5-12.5,12.2c-5.9,3.1-13.2,2.1-19.5,0
		c-6.3-2.1-12.4-5.2-19-6.2c-6.6-1-14.2,0.6-18,6.1c11.4-4.9,24.4,1.1,35.5,6.7c11.1,5.6,24.6,10.9,35.5,4.8
		c4.2-2.4,8.8-6.4,13.2-4.4c3.3,1.6,4.2,5.8,5.6,9.2c4.9,11.5,22.1,15.2,31.3,6.7c1.9,6.1,10.6,8.9,15.7,5c0.6,8,7.5,14.7,15.3,16.6
		c7.8,1.9,16.2-0.3,23.2-4.3c7-4,12.9-9.7,18.6-15.3c2.8,2.4,6.5,3.5,10.2,3.4c4.3-3,7.1-8.1,7-13.4c0-6.5-4.4-12.7-10.5-15
		c-2.5-0.9-5.2-1.2-7.7-0.3c-2.5,0.9-4.5,3.2-4.7,5.8c-0.1,2.6,2,5.3,4.6,5.3c2.6,0,4.9-3.1,3.7-5.4c2.2,3.3,0.1,8.4-3.7,9.7
		c-3.8,1.3-8.2-1-10-4.6c-1.7-3.6-1-8.1,1.3-11.4c2.3-3.3,5.9-5.4,9.8-6.6c5.1-1.5,10.7-1.4,15.6,0.7c4.9,2.1,8.9,6.2,10.5,11.3
		c0.6,1.8,0.8,3.6,0.8,5.4c5.2-4.9,13.5-6.1,20.8-5.6c8.7,0.6,17.5,3,26,1.2c7.8-1.6,14.4-6.4,21.8-9.4c7.3-3,16.6-3.9,22.4,1.5
		C1000.4,103.6,989.2,100.3,979.1,102.5z"/>
</g>
</svg>
