<?xml version="1.0" encoding="utf-8"?>
<!-- Generator: Adobe Illustrator 21.0.0, SVG Export Plug-In . SVG Version: 6.00 Build 0)  -->
<svg version="1.1" id="Layer_1" xmlns="http://www.w3.org/2000/svg" xmlns:xlink="http://www.w3.org/1999/xlink" x="0px" y="0px"
	 viewBox="0 0 1920 524.8" style="enable-background:new 0 0 1920 524.8;" xml:space="preserve">
<style type="text/css">
	.st0{fill:#BB2326;}
	.st1{fill:#FFFFFF;}
	.st2{fill:#EF4F50;}
	.st3{fill:#F16A28;}
	.st4{fill:#ED3434;}
	.st5{fill:#F9A63F;}
	.st6{fill:#C92027;}
	.st7{fill:#5B0A12;}
	.st8{fill:#FBF5E4;}
	.st9{fill:#F48048;}
	.st10{fill:none;stroke:url(#SVGID_1_);stroke-width:7;stroke-miterlimit:10;}
	.st11{fill:none;stroke:url(#SVGID_2_);stroke-width:7;stroke-miterlimit:10;}
	.st12{fill:none;stroke:url(#SVGID_3_);stroke-width:7;stroke-miterlimit:10;}
	.st13{fill:none;stroke:url(#SVGID_4_);stroke-width:7;stroke-miterlimit:10;}
	.st14{fill:none;stroke:url(#SVGID_5_);stroke-width:7;stroke-miterlimit:10;}
	.st15{fill:none;stroke:url(#SVGID_6_);stroke-width:7;stroke-miterlimit:10;}
	.st16{fill:none;stroke:url(#SVGID_7_);stroke-width:7;stroke-miterlimit:10;}
	.st17{fill:none;stroke:url(#SVGID_8_);stroke-width:7;stroke-miterlimit:10;}
	.st18{fill:none;stroke:url(#SVGID_9_);stroke-width:7;stroke-miterlimit:10;}
	.st19{fill:none;stroke:url(#SVGID_10_);stroke-width:7;stroke-miterlimit:10;}
	.st20{fill:none;stroke:url(#SVGID_11_);stroke-width:7;stroke-miterlimit:10;}
	.st21{fill:#FCBB51;}
	.st22{fill:#F8D9B2;}
	.st23{fill:none;stroke:url(#SVGID_12_);stroke-width:7;stroke-miterlimit:10;}
	.st24{clip-path:url(#SVGID_14_);}
	.st25{clip-path:url(#SVGID_16_);}
	.st26{clip-path:url(#SVGID_18_);}
	.st27{fill:url(#SVGID_19_);}
	.st28{fill:#9A1B1F;}
	.st29{fill:none;stroke:url(#SVGID_20_);stroke-width:7;stroke-miterlimit:10;}
	.st30{fill:none;stroke:url(#SVGID_21_);stroke-width:7;stroke-miterlimit:10;}
	.st31{fill:none;stroke:url(#SVGID_22_);stroke-width:7;stroke-miterlimit:10;}
	.st32{fill:none;stroke:url(#SVGID_23_);stroke-width:7;stroke-miterlimit:10;}
	.st33{fill:none;stroke:url(#SVGID_24_);stroke-width:7;stroke-miterlimit:10;}
	.st34{fill:none;stroke:url(#SVGID_25_);stroke-width:7;stroke-miterlimit:10;}
	.st35{fill:none;stroke:url(#SVGID_26_);stroke-width:7;stroke-miterlimit:10;}
	.st36{fill:none;stroke:url(#SVGID_27_);stroke-width:7;stroke-miterlimit:10;}
	.st37{fill:none;stroke:url(#SVGID_28_);stroke-width:7;stroke-miterlimit:10;}
	.st38{fill:none;stroke:url(#SVGID_29_);stroke-width:7;stroke-miterlimit:10;}
	.st39{fill:none;stroke:url(#SVGID_30_);stroke-width:7;stroke-miterlimit:10;}
	.st40{fill:none;stroke:url(#SVGID_31_);stroke-width:7;stroke-miterlimit:10;}
	.st41{clip-path:url(#SVGID_33_);}
	.st42{clip-path:url(#SVGID_35_);}
	.st43{clip-path:url(#SVGID_37_);}
	.st44{clip-path:url(#SVGID_39_);}
	.st45{clip-path:url(#SVGID_41_);}
	.st46{clip-path:url(#SVGID_43_);}
	.st47{fill:url(#SVGID_44_);}
	.st48{clip-path:url(#SVGID_46_);}
	.st49{clip-path:url(#SVGID_48_);}
</style>
<g>
	<defs>
		<rect id="SVGID_47_" width="1920" height="524.8"/>
	</defs>
	<clipPath id="SVGID_1_">
		<use xlink:href="#SVGID_47_"  style="overflow:visible;"/>
	</clipPath>
	<g style="clip-path:url(#SVGID_1_);">
		<g>
			<g>
				<g>
					<circle class="st28" cx="520.2" cy="245.4" r="197"/>
				</g>
				<g>
					<path class="st3" d="M520.2,405.6c-88.4,0-160.3-71.9-160.3-160.3c0-88.4,71.9-160.3,160.3-160.3S680.5,157,680.5,245.3
						C680.5,333.7,608.6,405.6,520.2,405.6z M520.2,87.3c-87.1,0-158,70.9-158,158s70.9,158,158,158c87.1,0,158-70.9,158-158
						S607.3,87.3,520.2,87.3z"/>
				</g>
				<g>
					<path class="st3" d="M520.2,379.5c-74,0-134.1-60.2-134.1-134.1c0-74,60.2-134.1,134.1-134.1c74,0,134.1,60.2,134.1,134.1
						C654.3,319.3,594.2,379.5,520.2,379.5z M520.2,113.5c-72.7,0-131.9,59.2-131.9,131.9s59.2,131.9,131.9,131.9
						c72.7,0,131.9-59.2,131.9-131.9S592.9,113.5,520.2,113.5z"/>
				</g>
				<g>
					<path class="st3" d="M520.2,357.3c-61.7,0-111.9-50.2-111.9-111.9c0-61.7,50.2-111.9,111.9-111.9
						c61.7,0,111.9,50.2,111.9,111.9C632.1,307.1,581.9,357.3,520.2,357.3z M520.2,135.7c-60.5,0-109.7,49.2-109.7,109.7
						S459.7,355,520.2,355c60.5,0,109.7-49.2,109.7-109.7S580.7,135.7,520.2,135.7z"/>
				</g>
			</g>
			<g>
				<g>
					<g>
						<g>
							<circle class="st28" cx="810.4" cy="309.6" r="197"/>
						</g>
						<g>
							<path class="st3" d="M810.4,469.9c-88.4,0-160.3-71.9-160.3-160.3c0-88.4,71.9-160.3,160.3-160.3s160.3,71.9,160.3,160.3
								C970.6,398,898.7,469.9,810.4,469.9z M810.4,151.6c-87.1,0-158,70.9-158,158c0,87.1,70.9,158,158,158
								c87.1,0,158-70.9,158-158C968.4,222.5,897.5,151.6,810.4,151.6z"/>
						</g>
						<g>
							<path class="st3" d="M810.4,443.7c-74,0-134.1-60.2-134.1-134.1c0-74,60.2-134.1,134.1-134.1s134.1,60.2,134.1,134.1
								C944.5,383.6,884.3,443.7,810.4,443.7z M810.4,177.7c-72.7,0-131.9,59.2-131.9,131.9c0,72.7,59.2,131.9,131.9,131.9
								c72.7,0,131.9-59.2,131.9-131.9C942.2,236.9,883.1,177.7,810.4,177.7z"/>
						</g>
						<g>
							<path class="st3" d="M810.4,421.5c-61.7,0-111.9-50.2-111.9-111.9c0-61.7,50.2-111.9,111.9-111.9s111.9,50.2,111.9,111.9
								C922.3,371.3,872.1,421.5,810.4,421.5z M810.4,199.9c-60.5,0-109.7,49.2-109.7,109.7c0,60.5,49.2,109.7,109.7,109.7
								c60.5,0,109.7-49.2,109.7-109.7C920,249.1,870.8,199.9,810.4,199.9z"/>
						</g>
					</g>
					<g>
						<g>
							<circle class="st28" cx="655.7" cy="404.1" r="197"/>
						</g>
						<g>
							<path class="st3" d="M655.7,564.4c-88.4,0-160.3-71.9-160.3-160.3c0-88.4,71.9-160.3,160.3-160.3
								c88.4,0,160.3,71.9,160.3,160.3C815.9,492.5,744,564.4,655.7,564.4z M655.7,246.1c-87.1,0-158,70.9-158,158s70.9,158,158,158
								c87.1,0,158-70.9,158-158S742.8,246.1,655.7,246.1z"/>
						</g>
						<g>
							<path class="st3" d="M655.7,538.2c-74,0-134.1-60.2-134.1-134.1c0-74,60.2-134.1,134.1-134.1c74,0,134.1,60.2,134.1,134.1
								C789.8,478.1,729.6,538.2,655.7,538.2z M655.7,272.2c-72.7,0-131.9,59.2-131.9,131.9c0,72.7,59.2,131.9,131.9,131.9
								c72.7,0,131.9-59.2,131.9-131.9C787.5,331.4,728.4,272.2,655.7,272.2z"/>
						</g>
						<g>
							<path class="st3" d="M655.7,516c-61.7,0-111.9-50.2-111.9-111.9c0-61.7,50.2-111.9,111.9-111.9
								c61.7,0,111.9,50.2,111.9,111.9C767.6,465.8,717.4,516,655.7,516z M655.7,294.4c-60.5,0-109.7,49.2-109.7,109.7
								s49.2,109.7,109.7,109.7c60.5,0,109.7-49.2,109.7-109.7S716.1,294.4,655.7,294.4z"/>
						</g>
					</g>
					<g>
						<g>
							<circle class="st28" cx="955.4" cy="448.7" r="197"/>
						</g>
						<g>
							<path class="st3" d="M955.4,609c-88.4,0-160.3-71.9-160.3-160.3c0-88.4,71.9-160.3,160.3-160.3s160.3,71.9,160.3,160.3
								C1115.7,537.1,1043.8,609,955.4,609z M955.4,290.7c-87.1,0-158,70.9-158,158c0,87.1,70.9,158,158,158
								c87.1,0,158-70.9,158-158C1113.4,361.6,1042.5,290.7,955.4,290.7z"/>
						</g>
						<g>
							<path class="st3" d="M955.4,582.8c-74,0-134.1-60.2-134.1-134.1c0-74,60.2-134.1,134.1-134.1s134.1,60.2,134.1,134.1
								C1089.5,522.7,1029.3,582.8,955.4,582.8z M955.4,316.8c-72.7,0-131.9,59.2-131.9,131.9c0,72.7,59.2,131.9,131.9,131.9
								c72.7,0,131.9-59.2,131.9-131.9C1087.3,376,1028.1,316.8,955.4,316.8z"/>
						</g>
						<g>
							<path class="st3" d="M955.4,560.6c-61.7,0-111.9-50.2-111.9-111.9c0-61.7,50.2-111.9,111.9-111.9s111.9,50.2,111.9,111.9
								C1067.3,510.4,1017.1,560.6,955.4,560.6z M955.4,339c-60.5,0-109.7,49.2-109.7,109.7s49.2,109.7,109.7,109.7
								c60.5,0,109.7-49.2,109.7-109.7S1015.9,339,955.4,339z"/>
						</g>
					</g>
				</g>
				<g>
					<g>
						<g>
							<circle class="st28" cx="214.5" cy="309.1" r="197"/>
						</g>
						<g>
							<path class="st3" d="M54.3,309.1c0-88.4,71.9-160.3,160.3-160.3s160.3,71.9,160.3,160.3c0,88.4-71.9,160.3-160.3,160.3
								S54.3,397.4,54.3,309.1z M56.5,309.1c0,87.1,70.9,158,158,158c87.1,0,158-70.9,158-158c0-87.1-70.9-158-158-158
								C127.4,151,56.5,221.9,56.5,309.1z"/>
						</g>
						<g>
							<path class="st3" d="M80.4,309.1c0-74,60.2-134.1,134.1-134.1s134.1,60.2,134.1,134.1c0,74-60.2,134.1-134.1,134.1
								S80.4,383,80.4,309.1z M82.6,309.1c0,72.7,59.2,131.9,131.9,131.9c72.7,0,131.9-59.2,131.9-131.9
								c0-72.7-59.2-131.9-131.9-131.9C141.8,177.2,82.6,236.3,82.6,309.1z"/>
						</g>
						<g>
							<path class="st3" d="M102.6,309.1c0-61.7,50.2-111.9,111.9-111.9s111.9,50.2,111.9,111.9c0,61.7-50.2,111.9-111.9,111.9
								S102.6,370.8,102.6,309.1z M104.9,309.1c0,60.5,49.2,109.7,109.7,109.7s109.7-49.2,109.7-109.7
								c0-60.5-49.2-109.7-109.7-109.7S104.9,248.6,104.9,309.1z"/>
						</g>
					</g>
					<g>
						<g>
							<circle class="st28" cx="369.2" cy="403.5" r="197"/>
						</g>
						<g>
							<path class="st3" d="M209,403.5c0-88.4,71.9-160.3,160.3-160.3c88.4,0,160.3,71.9,160.3,160.3c0,88.4-71.9,160.3-160.3,160.3
								C280.9,563.8,209,491.9,209,403.5z M211.2,403.5c0,87.1,70.9,158,158,158c87.1,0,158-70.9,158-158s-70.9-158-158-158
								C282.1,245.5,211.2,316.4,211.2,403.5z"/>
						</g>
						<g>
							<path class="st3" d="M235.1,403.5c0-74,60.2-134.1,134.1-134.1c74,0,134.1,60.2,134.1,134.1c0,74-60.2,134.1-134.1,134.1
								C295.3,537.7,235.1,477.5,235.1,403.5z M237.4,403.5c0,72.7,59.2,131.9,131.9,131.9c72.7,0,131.9-59.2,131.9-131.9
								c0-72.7-59.2-131.9-131.9-131.9C296.5,271.7,237.4,330.8,237.4,403.5z"/>
						</g>
						<g>
							<path class="st3" d="M257.3,403.5c0-61.7,50.2-111.9,111.9-111.9c61.7,0,111.9,50.2,111.9,111.9
								c0,61.7-50.2,111.9-111.9,111.9C307.5,515.4,257.3,465.2,257.3,403.5z M259.6,403.5c0,60.5,49.2,109.7,109.7,109.7
								S478.9,464,478.9,403.5s-49.2-109.7-109.7-109.7S259.6,343.1,259.6,403.5z"/>
						</g>
					</g>
					<g>
						<g>
							<circle class="st28" cx="56.8" cy="448.1" r="197"/>
						</g>
						<g>
							<path class="st3" d="M-103.5,448.1c0-88.4,71.9-160.3,160.3-160.3S217,359.8,217,448.1c0,88.4-71.9,160.3-160.3,160.3
								S-103.5,536.5-103.5,448.1z M-101.3,448.1c0,87.1,70.9,158,158,158c87.1,0,158-70.9,158-158c0-87.1-70.9-158-158-158
								C-30.4,290.1-101.3,361-101.3,448.1z"/>
						</g>
						<g>
							<path class="st3" d="M-77.4,448.1c0-74,60.2-134.1,134.1-134.1c74,0,134.1,60.2,134.1,134.1c0,74-60.2,134.1-134.1,134.1
								C-17.2,582.3-77.4,522.1-77.4,448.1z M-75.1,448.1C-75.1,520.9-16,580,56.8,580c72.7,0,131.9-59.2,131.9-131.9
								c0-72.7-59.2-131.9-131.9-131.9C-16,316.3-75.1,375.4-75.1,448.1z"/>
						</g>
						<g>
							<path class="st3" d="M-55.1,448.1c0-61.7,50.2-111.9,111.9-111.9c61.7,0,111.9,50.2,111.9,111.9
								c0,61.7-50.2,111.9-111.9,111.9C-4.9,560-55.1,509.8-55.1,448.1z M-52.9,448.1c0,60.5,49.2,109.7,109.7,109.7
								s109.7-49.2,109.7-109.7S117.2,338.5,56.8,338.5S-52.9,387.7-52.9,448.1z"/>
						</g>
					</g>
				</g>
			</g>
		</g>
		<g>
			<g>
				<g>
					<circle class="st28" cx="1428" cy="244.8" r="197"/>
				</g>
				<g>
					<path class="st3" d="M1428,405.1c-88.4,0-160.3-71.9-160.3-160.3c0-88.4,71.9-160.3,160.3-160.3c88.4,0,160.3,71.9,160.3,160.3
						C1588.3,333.2,1516.4,405.1,1428,405.1z M1428,86.8c-87.1,0-158,70.9-158,158s70.9,158,158,158c87.1,0,158-70.9,158-158
						S1515.2,86.8,1428,86.8z"/>
				</g>
				<g>
					<path class="st3" d="M1428,378.9c-74,0-134.1-60.2-134.1-134.1c0-74,60.2-134.1,134.1-134.1c74,0,134.1,60.2,134.1,134.1
						C1562.2,318.8,1502,378.9,1428,378.9z M1428,112.9c-72.7,0-131.9,59.2-131.9,131.9s59.2,131.9,131.9,131.9
						c72.7,0,131.9-59.2,131.9-131.9S1500.8,112.9,1428,112.9z"/>
				</g>
				<g>
					<path class="st3" d="M1428,356.7c-61.7,0-111.9-50.2-111.9-111.9c0-61.7,50.2-111.9,111.9-111.9c61.7,0,111.9,50.2,111.9,111.9
						C1539.9,306.5,1489.8,356.7,1428,356.7z M1428,135.1c-60.5,0-109.7,49.2-109.7,109.7s49.2,109.7,109.7,109.7
						c60.5,0,109.7-49.2,109.7-109.7S1488.5,135.1,1428,135.1z"/>
				</g>
			</g>
			<g>
				<g>
					<g>
						<g>
							<circle class="st28" cx="1718.2" cy="309.1" r="197"/>
						</g>
						<g>
							<path class="st3" d="M1718.2,469.3c-88.4,0-160.3-71.9-160.3-160.3c0-88.4,71.9-160.3,160.3-160.3
								c88.4,0,160.3,71.9,160.3,160.3C1878.5,397.4,1806.6,469.3,1718.2,469.3z M1718.2,151c-87.1,0-158,70.9-158,158
								c0,87.1,70.9,158,158,158c87.1,0,158-70.9,158-158C1876.2,221.9,1805.4,151,1718.2,151z"/>
						</g>
						<g>
							<path class="st3" d="M1718.2,443.2c-74,0-134.1-60.2-134.1-134.1c0-74,60.2-134.1,134.1-134.1c74,0,134.1,60.2,134.1,134.1
								C1852.3,383,1792.2,443.2,1718.2,443.2z M1718.2,177.2c-72.7,0-131.9,59.2-131.9,131.9c0,72.7,59.2,131.9,131.9,131.9
								c72.7,0,131.9-59.2,131.9-131.9C1850.1,236.3,1790.9,177.2,1718.2,177.2z"/>
						</g>
						<g>
							<path class="st3" d="M1718.2,421c-61.7,0-111.9-50.2-111.9-111.9c0-61.7,50.2-111.9,111.9-111.9
								c61.7,0,111.9,50.2,111.9,111.9C1830.1,370.8,1779.9,421,1718.2,421z M1718.2,199.4c-60.5,0-109.7,49.2-109.7,109.7
								c0,60.5,49.2,109.7,109.7,109.7c60.5,0,109.7-49.2,109.7-109.7C1827.9,248.6,1778.7,199.4,1718.2,199.4z"/>
						</g>
					</g>
					<g>
						<g>
							<circle class="st28" cx="1563.5" cy="403.5" r="197"/>
						</g>
						<g>
							<path class="st3" d="M1563.5,563.8c-88.4,0-160.3-71.9-160.3-160.3c0-88.4,71.9-160.3,160.3-160.3
								c88.4,0,160.3,71.9,160.3,160.3C1723.8,491.9,1651.9,563.8,1563.5,563.8z M1563.5,245.5c-87.1,0-158,70.9-158,158
								s70.9,158,158,158c87.1,0,158-70.9,158-158S1650.6,245.5,1563.5,245.5z"/>
						</g>
						<g>
							<path class="st3" d="M1563.5,537.7c-74,0-134.1-60.2-134.1-134.1c0-74,60.2-134.1,134.1-134.1c74,0,134.1,60.2,134.1,134.1
								C1697.6,477.5,1637.5,537.7,1563.5,537.7z M1563.5,271.7c-72.7,0-131.9,59.2-131.9,131.9c0,72.7,59.2,131.9,131.9,131.9
								c72.7,0,131.9-59.2,131.9-131.9C1695.4,330.8,1636.2,271.7,1563.5,271.7z"/>
						</g>
						<g>
							<path class="st3" d="M1563.5,515.4c-61.7,0-111.9-50.2-111.9-111.9c0-61.7,50.2-111.9,111.9-111.9
								c61.7,0,111.9,50.2,111.9,111.9C1675.4,465.2,1625.2,515.4,1563.5,515.4z M1563.5,293.9c-60.5,0-109.7,49.2-109.7,109.7
								s49.2,109.7,109.7,109.7c60.5,0,109.7-49.2,109.7-109.7S1624,293.9,1563.5,293.9z"/>
						</g>
					</g>
					<g>
						<g>
							<circle class="st28" cx="1863.2" cy="448.1" r="197"/>
						</g>
						<g>
							<path class="st3" d="M1863.2,608.4c-88.4,0-160.3-71.9-160.3-160.3c0-88.4,71.9-160.3,160.3-160.3
								c88.4,0,160.3,71.9,160.3,160.3C2023.5,536.5,1951.6,608.4,1863.2,608.4z M1863.2,290.1c-87.1,0-158,70.9-158,158
								c0,87.1,70.9,158,158,158c87.1,0,158-70.9,158-158C2021.3,361,1950.4,290.1,1863.2,290.1z"/>
						</g>
						<g>
							<path class="st3" d="M1863.2,582.3c-74,0-134.1-60.2-134.1-134.1c0-74,60.2-134.1,134.1-134.1c74,0,134.1,60.2,134.1,134.1
								C1997.4,522.1,1937.2,582.3,1863.2,582.3z M1863.2,316.3c-72.7,0-131.9,59.2-131.9,131.9c0,72.7,59.2,131.9,131.9,131.9
								c72.7,0,131.9-59.2,131.9-131.9C1995.1,375.4,1936,316.3,1863.2,316.3z"/>
						</g>
						<g>
							<path class="st3" d="M1863.2,560c-61.7,0-111.9-50.2-111.9-111.9c0-61.7,50.2-111.9,111.9-111.9
								c61.7,0,111.9,50.2,111.9,111.9C1975.1,509.8,1924.9,560,1863.2,560z M1863.2,338.5c-60.5,0-109.7,49.2-109.7,109.7
								s49.2,109.7,109.7,109.7c60.5,0,109.7-49.2,109.7-109.7S1923.7,338.5,1863.2,338.5z"/>
						</g>
					</g>
				</g>
				<g>
					<g>
						<g>
							<circle class="st28" cx="1122.4" cy="308.5" r="197"/>
						</g>
						<g>
							<path class="st3" d="M962.1,308.5c0-88.4,71.9-160.3,160.3-160.3c88.4,0,160.3,71.9,160.3,160.3
								c0,88.4-71.9,160.3-160.3,160.3C1034,468.8,962.1,396.9,962.1,308.5z M964.4,308.5c0,87.1,70.9,158,158,158
								c87.1,0,158-70.9,158-158c0-87.1-70.9-158-158-158C1035.2,150.5,964.4,221.4,964.4,308.5z"/>
						</g>
						<g>
							<path class="st3" d="M988.3,308.5c0-74,60.2-134.1,134.1-134.1c74,0,134.1,60.2,134.1,134.1c0,74-60.2,134.1-134.1,134.1
								C1048.4,442.6,988.3,382.5,988.3,308.5z M990.5,308.5c0,72.7,59.2,131.9,131.9,131.9c72.7,0,131.9-59.2,131.9-131.9
								c0-72.7-59.2-131.9-131.9-131.9C1049.7,176.6,990.5,235.8,990.5,308.5z"/>
						</g>
						<g>
							<path class="st3" d="M1010.5,308.5c0-61.7,50.2-111.9,111.9-111.9c61.7,0,111.9,50.2,111.9,111.9
								c0,61.7-50.2,111.9-111.9,111.9C1060.7,420.4,1010.5,370.2,1010.5,308.5z M1012.7,308.5c0,60.5,49.2,109.7,109.7,109.7
								S1232,369,1232,308.5c0-60.5-49.2-109.7-109.7-109.7S1012.7,248,1012.7,308.5z"/>
						</g>
					</g>
					<g>
						<g>
							<circle class="st28" cx="1277.1" cy="403" r="197"/>
						</g>
						<g>
							<path class="st3" d="M1116.8,403c0-88.4,71.9-160.3,160.3-160.3c88.4,0,160.3,71.9,160.3,160.3
								c0,88.4-71.9,160.3-160.3,160.3C1188.7,563.3,1116.8,491.4,1116.8,403z M1119.1,403c0,87.1,70.9,158,158,158
								c87.1,0,158-70.9,158-158s-70.9-158-158-158C1189.9,245,1119.1,315.9,1119.1,403z"/>
						</g>
						<g>
							<path class="st3" d="M1143,403c0-74,60.2-134.1,134.1-134.1c74,0,134.1,60.2,134.1,134.1c0,74-60.2,134.1-134.1,134.1
								C1203.1,537.1,1143,476.9,1143,403z M1145.2,403c0,72.7,59.2,131.9,131.9,131.9c72.7,0,131.9-59.2,131.9-131.9
								c0-72.7-59.2-131.9-131.9-131.9C1204.4,271.1,1145.2,330.3,1145.2,403z"/>
						</g>
						<g>
							<path class="st3" d="M1165.2,403c0-61.7,50.2-111.9,111.9-111.9c61.7,0,111.9,50.2,111.9,111.9
								c0,61.7-50.2,111.9-111.9,111.9C1215.4,514.9,1165.2,464.7,1165.2,403z M1167.4,403c0,60.5,49.2,109.7,109.7,109.7
								s109.7-49.2,109.7-109.7s-49.2-109.7-109.7-109.7S1167.4,342.5,1167.4,403z"/>
						</g>
					</g>
					<g>
						<g>
							<circle class="st28" cx="964.6" cy="447.6" r="197"/>
						</g>
						<g>
							<path class="st3" d="M804.3,447.6c0-88.4,71.9-160.3,160.3-160.3s160.3,71.9,160.3,160.3c0,88.4-71.9,160.3-160.3,160.3
								S804.3,536,804.3,447.6z M806.6,447.6c0,87.1,70.9,158,158,158c87.1,0,158-70.9,158-158c0-87.1-70.9-158-158-158
								C877.5,289.6,806.6,360.5,806.6,447.6z"/>
						</g>
						<g>
							<path class="st3" d="M830.5,447.6c0-74,60.2-134.1,134.1-134.1c74,0,134.1,60.2,134.1,134.1c0,74-60.2,134.1-134.1,134.1
								C890.7,581.7,830.5,521.5,830.5,447.6z M832.7,447.6c0,72.7,59.2,131.9,131.9,131.9c72.7,0,131.9-59.2,131.9-131.9
								c0-72.7-59.2-131.9-131.9-131.9C891.9,315.7,832.7,374.9,832.7,447.6z"/>
						</g>
						<g>
							<path class="st3" d="M852.7,447.6c0-61.7,50.2-111.9,111.9-111.9c61.7,0,111.9,50.2,111.9,111.9
								c0,61.7-50.2,111.9-111.9,111.9C902.9,559.5,852.7,509.3,852.7,447.6z M855,447.6c0,60.5,49.2,109.7,109.7,109.7
								s109.7-49.2,109.7-109.7s-49.2-109.7-109.7-109.7S855,387.1,855,447.6z"/>
						</g>
					</g>
				</g>
			</g>
		</g>
	</g>
</g>
</svg>
