<?xml version="1.0" encoding="utf-8"?>
<!-- Generator: Adobe Illustrator 21.0.0, SVG Export Plug-In . SVG Version: 6.00 Build 0)  -->
<svg version="1.1" id="Layer_1" xmlns="http://www.w3.org/2000/svg" xmlns:xlink="http://www.w3.org/1999/xlink" x="0px" y="0px"
	 viewBox="0 0 300 513.5" style="enable-background:new 0 0 300 513.5;" xml:space="preserve">
<style type="text/css">
	.st0{fill:#BB2326;}
	.st1{fill:#FFFFFF;}
	.st2{fill:#EF4F50;}
	.st3{fill:#F16A28;}
	.st4{fill:#ED3434;}
	.st5{fill:#F9A63F;}
	.st6{fill:#C92027;}
	.st7{fill:#5B0A12;}
	.st8{fill:#FBF5E4;}
	.st9{fill:#F48048;}
	.st10{fill:none;stroke:url(#SVGID_1_);stroke-width:7;stroke-miterlimit:10;}
	.st11{fill:none;stroke:url(#SVGID_2_);stroke-width:7;stroke-miterlimit:10;}
	.st12{fill:none;stroke:url(#SVGID_3_);stroke-width:7;stroke-miterlimit:10;}
	.st13{fill:none;stroke:url(#SVGID_4_);stroke-width:7;stroke-miterlimit:10;}
	.st14{fill:none;stroke:url(#SVGID_5_);stroke-width:7;stroke-miterlimit:10;}
	.st15{fill:none;stroke:url(#SVGID_6_);stroke-width:7;stroke-miterlimit:10;}
	.st16{fill:none;stroke:url(#SVGID_7_);stroke-width:7;stroke-miterlimit:10;}
	.st17{fill:none;stroke:url(#SVGID_8_);stroke-width:7;stroke-miterlimit:10;}
	.st18{fill:none;stroke:url(#SVGID_9_);stroke-width:7;stroke-miterlimit:10;}
	.st19{fill:none;stroke:url(#SVGID_10_);stroke-width:7;stroke-miterlimit:10;}
	.st20{fill:none;stroke:url(#SVGID_11_);stroke-width:7;stroke-miterlimit:10;}
	.st21{fill:#FCBB51;}
	.st22{fill:#F8D9B2;}
	.st23{fill:none;stroke:url(#SVGID_12_);stroke-width:7;stroke-miterlimit:10;}
	.st24{clip-path:url(#SVGID_14_);}
	.st25{clip-path:url(#SVGID_16_);}
	.st26{clip-path:url(#SVGID_18_);}
	.st27{fill:url(#SVGID_19_);}
	.st28{fill:#9A1B1F;}
	.st29{fill:none;stroke:url(#SVGID_20_);stroke-width:7;stroke-miterlimit:10;}
	.st30{fill:none;stroke:url(#SVGID_21_);stroke-width:7;stroke-miterlimit:10;}
	.st31{fill:none;stroke:url(#SVGID_22_);stroke-width:7;stroke-miterlimit:10;}
	.st32{fill:none;stroke:url(#SVGID_23_);stroke-width:7;stroke-miterlimit:10;}
	.st33{fill:none;stroke:url(#SVGID_24_);stroke-width:7;stroke-miterlimit:10;}
	.st34{fill:none;stroke:url(#SVGID_25_);stroke-width:7;stroke-miterlimit:10;}
	.st35{fill:none;stroke:url(#SVGID_26_);stroke-width:7;stroke-miterlimit:10;}
	.st36{fill:none;stroke:url(#SVGID_27_);stroke-width:7;stroke-miterlimit:10;}
	.st37{fill:none;stroke:url(#SVGID_28_);stroke-width:7;stroke-miterlimit:10;}
	.st38{fill:none;stroke:url(#SVGID_29_);stroke-width:7;stroke-miterlimit:10;}
	.st39{fill:none;stroke:url(#SVGID_30_);stroke-width:7;stroke-miterlimit:10;}
	.st40{fill:none;stroke:url(#SVGID_31_);stroke-width:7;stroke-miterlimit:10;}
	.st41{clip-path:url(#SVGID_33_);}
	.st42{clip-path:url(#SVGID_35_);}
	.st43{clip-path:url(#SVGID_37_);}
	.st44{clip-path:url(#SVGID_39_);}
	.st45{clip-path:url(#SVGID_41_);}
	.st46{clip-path:url(#SVGID_43_);}
	.st47{fill:url(#SVGID_44_);}
	.st48{clip-path:url(#SVGID_46_);}
	.st49{clip-path:url(#SVGID_48_);}
</style>
<g>
	<g>
		<g>
			<path class="st2" d="M56.8,371.8c-4.3-14-3.4-29.7,2.4-43.1c5.8-13.4,16.7-24.8,29.8-31.2l0.7,1.5c-12.8,6.2-23.4,17.3-29,30.3
				c-5.7,13-6.5,28.3-2.4,41.9L56.8,371.8z"/>
		</g>
		<g>
			<path class="st2" d="M59.5,387.1c-7.2-10.6-7.1-23.7-5.7-32.9c3.4-22.1,16.6-42.6,35.3-54.9l0.9,1.4
				c-18.4,12-31.3,32.1-34.6,53.7c-1.3,8.9-1.5,21.6,5.4,31.7L59.5,387.1z"/>
		</g>
		<g>
			<path class="st2" d="M65.9,384.6c-5-7.6-7.4-17.1-7.1-27.6c0.2-8.5,2.2-17.4,6.1-27.9c5.2-13.9,11.3-23,19.4-28.7l0.9,1.3
				c-7.8,5.5-13.8,14.4-18.8,28c-3.9,10.4-5.8,19.1-6,27.4c-0.2,7.1,0.8,17.4,6.8,26.7L65.9,384.6z"/>
		</g>
		<g>
			<path class="st2" d="M78.6,374.9c-6.4-12.4-8.7-26.7-6.7-40.5c2.1-13.7,8.5-26.8,18.2-36.7l1.2,1.1c-9.5,9.7-15.8,22.4-17.8,35.8
				c-2,13.4,0.3,27.4,6.5,39.5L78.6,374.9z"/>
		</g>
		<g>
			<path class="st2" d="M79.8,366c-6.8-21.1-4.9-44.6,5.1-64.4l1.5,0.7c-9.8,19.4-11.7,42.4-5,63.2L79.8,366z"/>
		</g>
		<g>
			<path class="st2" d="M81.1,355.8c-3.2-17.5-2-35.6,3.6-52.5l1.6,0.5c-5.5,16.6-6.7,34.5-3.5,51.7L81.1,355.8z"/>
		</g>
		<g>
			<path class="st2" d="M84.1,369.9l-1.4-0.9c2.9-4.5,4.3-10.4,4-17.3c-0.2-5.2-1.4-10.4-2.4-15.4l-0.6-2.7
				c-1.2-5.6-2.4-12.1-1.8-18.6c0.7-7.1,3.5-13.1,7.9-17l1.1,1.2c-4.1,3.6-6.7,9.2-7.3,15.9c-0.6,6.3,0.6,12.7,1.7,18.1l0.6,2.7
				c1.1,5.1,2.2,10.4,2.5,15.7C88.7,358.8,87.2,365.1,84.1,369.9z"/>
		</g>
	</g>
	<g>
		<g>
			<path class="st3" d="M201.1,0c-8.1,66.1-23.2,131.3-44.9,194.3l1.6,0.5c21.8-63.2,36.9-128.6,45-194.8H201.1z"/>
		</g>
		<g>
			<g>
				<g>
					<path class="st2" d="M198.1,205.8c2.8,12.7,1.3,26.4-4.2,38.2c-11.8,25.4-43.2,39.9-70.2,32.3c-27-7.5-46.4-36.1-43.3-64
						c3-27.9,28.1-51.6,56.1-53.2C164.4,157.6,192,178.5,198.1,205.8z"/>
				</g>
			</g>
			<g>
				<g>
					<path class="st4" d="M104.5,192.9c7.1-15.4,20.4-28.7,38.1-33.8c6.7,0.4,13.3,2,19.5,4.7c-38.3,13.6-54.1,57-55,96.4
						c-1.8,0.6-3.6,1.2-5.4,1.7C94.2,239.6,93.8,215.2,104.5,192.9z"/>
				</g>
			</g>
			<g>
				<g>
					<path class="st4" d="M107.1,268.5c-0.1-2.7-0.1-5.4,0-8.2c38.4-13.1,73.2-38.3,76.2-81.6c1.5,1.6,2.9,3.2,4.2,4.9
						c4.9,48.2-35.7,78.4-79.9,85.2C107.5,268.8,107.3,268.7,107.1,268.5z"/>
				</g>
			</g>
			<g>
				<g>
					<path class="st6" d="M156.4,219.1c-8.1-10-20-17.8-33.4-21.9c-9.1-2.8-17.7-3.6-25.6-2.4c-5.2,0.8-10,2.5-14.2,5
						c0.1-0.4,0.3-0.7,0.4-1.1c4.1-2.3,8.7-3.8,13.6-4.6c8-1.2,16.7-0.4,25.9,2.4c13.6,4.2,25.6,12,33.8,22.2
						c8.9,11,13.5,24.9,12.6,38.1c-0.4,6-2,11.3-4.6,15.6c-0.4,0.2-0.8,0.4-1.3,0.6c2.9-4.3,4.6-9.9,5.1-16.2
						C169.7,243.6,165.1,230,156.4,219.1z"/>
				</g>
				<g>
					<path class="st6" d="M195,216.3c-2.6-9.7-8.1-18.9-16-26.7c-7-6.9-15.8-12.7-26.2-17.1c-8.9-3.8-24.5-8.8-40.9-6
						c0.7-0.4,1.3-0.7,2-1.1c15.8-2,30.6,2.7,39.2,6.4c10.5,4.5,19.4,10.3,26.5,17.3c7.9,7.9,13.5,17.2,16.2,27
						c1.5,5.6,2,11.3,1.9,17.1c-0.3,1.1-0.6,2.2-0.9,3.2C197.2,229.6,196.8,222.8,195,216.3z"/>
				</g>
				<g>
					<path class="st6" d="M172.2,231.3c-5.1-16.9-21.3-33.2-39.5-39.7c-17-6.1-33.8-5.6-46.3,1.1c0.2-0.4,0.4-0.8,0.6-1.2
						c12.6-6.3,29.1-6.6,45.9-0.7c18.4,6.6,34.8,23.1,40,40.2c3.9,12.8,2.5,27-3.2,38.7c-0.4,0.2-0.8,0.4-1.2,0.7
						C174.6,258.7,176.1,244.3,172.2,231.3z"/>
				</g>
				<g>
					<path class="st6" d="M180.8,181.9c-15.5-14.3-37.4-21.7-58.4-20c1-0.3,2.1-0.7,3.2-0.9c20.2-0.7,40.9,6.7,55.8,20.4
						c6.4,5.9,11.8,13.1,15.8,20.9c0.4,1.2,0.7,2.4,1,3.7c0,0,0,0.1,0,0.1C193.9,196.9,188,188.6,180.8,181.9z"/>
				</g>
			</g>
			<g>
				<g>
					<path class="st2" d="M101.7,262.1c0.3,1.1,0.7,2.1,1.1,3.1c-1-0.8-2-1.7-2.9-2.6C100.4,262.5,101.1,262.2,101.7,262.1z"/>
				</g>
			</g>
			<g>
				<g>
					<path class="st2" d="M107.1,260.3c-0.1,2.8-0.1,5.5,0,8.2c-1.5-1-3-2.2-4.4-3.3c-0.4-1-0.7-2.1-1.1-3.1
						C103.5,261.5,105.3,260.9,107.1,260.3z"/>
				</g>
			</g>
			<g>
				<g>
					<path class="st6" d="M82.4,217.5c0.2-0.5,0.5-1,0.8-1.4c0,0,0-0.1,0-0.1l0,0.1c0.9-1.4,2.2-2.7,3.5-3.8
						c10.4-9,25.4-11.8,38.7-8.4c13.3,3.4,24.8,12.5,32.5,23.9c4.7,7.1,8.2,15.4,7.9,23.9c-0.2,8.5-4.7,17.2-12.4,20.9
						c-5.8,2.8-12.6,2.6-18.9,1.7c-14.6-2-29.3-7.4-39.8-17.8c-8.8-8.7-14.1-21.3-13-33.4C81.3,221.3,81.6,219.3,82.4,217.5z"/>
				</g>
			</g>
			<g>
				<g>
					<path class="st5" d="M145.3,264.5c-3.7,0-7.4-0.4-11-1.2l0.2-1c16.2,3.6,34.3-1.3,46.7-12.3c0.9-4.1,1.4-8.2,1.5-12.4
						c0.1-8.9-1.9-17.8-5.7-25.8c-7.3,15.9-19.6,29.8-34.5,39l-0.5-0.9c14.9-9.2,27-23,34.3-38.9c0.1-0.2,0.1-0.3,0.2-0.5
						c-2.3-4.7-5.2-9-8.7-12.9c-8.3-9.3-19.8-16.2-33.3-20.1c-3.2,2.7-6.1,5.6-8.8,8.8c-10.6,12.4-17.2,28.1-18.6,44.3l-1-0.1
						c1.4-16.4,8.1-32.4,18.9-44.9c2.6-3,5.4-5.8,8.4-8.4c-0.5-0.1-1-0.3-1.6-0.4c-10.7-2.7-20.5-3.1-29.2-1.1
						c-0.2,0-0.4,0.1-0.6,0.1c-2.5,2.7-4.8,5.7-6.8,8.8c-9.1,14.6-11.4,33.2-6.2,49.6l-1,0.3c-5.3-16.7-2.9-35.6,6.3-50.5
						c1.7-2.8,3.7-5.4,5.8-7.8c-0.8,0.2-1.5,0.5-2.2,0.7c0.5-0.6,1.1-1.1,1.7-1.6c0.6-0.2,1.2-0.4,1.9-0.5c2.1-2.3,4.4-4.4,6.9-6.3
						c3-2,6.3-3.7,9.6-5.1c-5.4,2.9-10.4,6.7-14.7,11.1c8.6-1.8,18.3-1.4,28.8,1.3c0.8,0.2,1.5,0.4,2.3,0.6c7.2-6,15.5-10.8,24.4-14
						c0.5,0.2,1,0.4,1.5,0.6c-9,3.1-17.4,7.8-24.7,13.8c13.5,4,24.9,11,33.1,20.2c3.3,3.7,6.2,7.9,8.5,12.4c4.1-9.5,6.4-19.7,7.1-30
						c0.3,0.3,0.6,0.7,0.9,1c-0.7,10.4-3.2,20.6-7.4,30.1c4.1,8.4,6.3,17.7,6.2,27c0,3.8-0.4,7.5-1.2,11.2c1-1,2.1-2,3-3.1
						c8.7-9.9,13.4-23.4,13.1-36.7c0.4,2.3,0.6,4.6,0.7,6.9c-1.2,11.2-5.7,22.1-13.1,30.5c-1.3,1.5-2.7,2.9-4.2,4.2
						c-1.2,5-3,9.9-5.4,14.5c-0.7,0.5-1.3,1-2,1.5c2.7-4.7,4.7-9.7,6.1-14.9C171,259.9,158.1,264.5,145.3,264.5z"/>
				</g>
			</g>
			<g>
				<g>
					<g>
						<g>
							<path class="st5" d="M86.4,235.1c1-1.6,4.9-7,5.9-8.3c3-4.5,8.4-6.8,13.7-7.7c13.1-2.1,26.4,3.5,36.7,11.8
								c4.8,3.9,9.1,8.6,11.4,14.3c2.2,5.7,2,12.7-1.7,17.6c-1,1.3-4.7,6.8-5.9,8.3c-3.6,4.7-9.6,6.8-15.5,7.4
								c-16.6,1.8-34-6.7-42.7-21C84.1,250.8,82,241.7,86.4,235.1z"/>
						</g>
					</g>
					<g>
						<g>
							<path class="st3" d="M107.3,218.9c5-0.6,10.1-0.1,15,1.2c-12,13.5-20.1,29.8-26.3,46.7c-3-2.7-5.6-5.8-7.7-9.3
								c-0.6-1-1.1-2-1.6-3.1C92.5,242.1,99.1,230.1,107.3,218.9z"/>
						</g>
					</g>
					<g>
						<g>
							<path class="st3" d="M100.9,228.6c12.5-2,25.2,3.3,35,11.3c4.6,3.7,8.7,8.2,10.9,13.7c2.1,5.5,1.9,12.1-1.6,16.8
								c-3.4,4.5-9.2,6.5-14.8,7.1c-15.9,1.7-32.5-6.4-40.8-20c-4-6.5-6-15.2-1.8-21.5C90.6,231.6,95.8,229.4,100.9,228.6z"/>
						</g>
					</g>
					<g>
						<g>
							<path class="st7" d="M102.5,231.1c11.2-1.8,22.6,3,31.4,10.1c4.1,3.3,7.8,7.3,9.7,12.3s1.7,10.9-1.5,15.1
								c-3.1,4-8.3,5.8-13.3,6.3c-14.3,1.6-29.1-5.7-36.6-18c-3.6-5.8-5.4-13.6-1.6-19.3C93.3,233.8,98,231.8,102.5,231.1z"/>
						</g>
					</g>
					<g>
						<g>
							<g>
								<path class="st8" d="M141.8,243.5c-0.9-1.2-1.9-2.3-3-3.4c2.1-2,4-4.1,5.7-6.4c1.4,1.3,2.7,2.7,3.9,4.2
									C146.1,239.8,143.9,241.6,141.8,243.5z"/>
							</g>
						</g>
						<g>
							<g>
								<path class="st8" d="M150,240c0.3,0.5,0.7,0.9,1,1.4c-1.8,1.5-3.3,3.2-5.1,4.6c-0.5,0.4-1,0.8-1.5,1.1
									c-0.3-0.5-0.6-0.9-0.9-1.4C145.6,243.8,147.8,241.9,150,240z"/>
							</g>
						</g>
						<g>
							<g>
								<path class="st8" d="M150.3,251.5c-0.8,0.8-1.7,1.7-2.6,2.5c-0.6-1.6-1.3-3.1-2.1-4.5c0.4-0.3,0.7-0.5,1.1-0.8
									c1.9-1.5,3.7-3.3,5.6-4.9c0.7,1.4,1.3,2.9,1.6,4.4C152.6,249.1,151.5,250.3,150.3,251.5z"/>
							</g>
						</g>
						<g>
							<g>
								<path class="st8" d="M148.7,256.9c0.6-0.6,1.2-1.2,1.8-1.8c1.2-1.2,2.4-2.7,3.8-3.9c0,0.6,0,1.1,0,1.7
									c-0.3,4.8-2.8,9.1-5.3,13.2C150.2,263.2,149.6,259.9,148.7,256.9C148.7,256.9,148.7,256.9,148.7,256.9z"/>
							</g>
						</g>
					</g>
				</g>
				<g>
					<path class="st3" d="M88.5,249.7l21.3-2.8c-0.9-2.2-1.2-4.8,0.1-6.7c1.1-1.7,3.1-2.5,5.1-2.8c3.3-0.5,6.7,0.3,9.7,1.8
						c1.2-1,2.2-2.3,2.9-3.7l0.9,0.4c-0.7,1.4-1.7,2.7-2.9,3.8c1,0.6,2,1.3,2.9,2c1.8,1.4,3.4,3.2,4.2,5.3c0.8,2.1,0.8,4.7-0.6,6.5
						c-1.3,1.7-3.4,2.4-5.4,2.7c2.5,6.4,5.3,12.7,8.3,18.9l0.8,1.6l-2.1-1.3l0.2-0.3c-3-6.1-5.7-12.4-8.2-18.8
						c-5.9,0.4-12-2.7-15.1-7.8c-0.1-0.2-0.2-0.4-0.4-0.6l-21.6,2.8L88.5,249.7z"/>
				</g>
			</g>
		</g>
		<g>
			<path class="st3" d="M67.2,387.3c-10.8-23.8-7.8-52.8,7.7-73.8c4.9-6.7,11-12.6,16.8-18.2c4.3-4.2,8.8-8.5,12.7-13.1
				c6.5-7.6,16.8-22.6,12.9-38.5l1.6-0.4c4.1,16.6-6.5,32.2-13.2,40c-4,4.7-8.5,9-12.8,13.2c-5.8,5.6-11.8,11.4-16.6,18
				c-15.1,20.6-18,48.9-7.5,72.2L67.2,387.3z"/>
		</g>
		<g>
			<path class="st9" d="M65.1,366.4c-6.4-5.2-10.7-12.9-11.9-21c-1.2-8.1,0.8-16.7,5.4-23.5c4.9-7.2,12.3-12.1,19.5-16.8
				c4.3-2.8,8.8-5.8,12.6-9.2l1.1,1.2c-3.9,3.5-8.4,6.5-12.8,9.3c-7.4,4.8-14.3,9.4-19,16.4c-4.4,6.5-6.2,14.6-5.1,22.4
				c1.1,7.7,5.3,15,11.3,20L65.1,366.4z"/>
		</g>
		<g>
			<path class="st9" d="M83,372c-7.2-9.1-11.2-20.5-11.2-32.2c0-11.6,3.9-23.1,11.1-32.2c0.6-0.7,1.2-1.4,1.7-2.2
				c2.3-2.8,4.7-5.8,5.6-9.2l1.6,0.4c-1,3.8-3.5,6.9-6,9.9c-0.6,0.7-1.2,1.4-1.7,2.1c-6.9,8.9-10.7,19.9-10.7,31.2
				c0,11.3,3.9,22.3,10.9,31.2L83,372z"/>
		</g>
		<g>
			<path class="st9" d="M80.2,389.9l-1.6-0.2c0.9-9.1-2.1-18.1-5-26.9c-2.8-8.3-5.6-16.8-5.3-25.6c0.3-7.4,2.9-15.1,7.6-22.3
				c3.8-5.8,9.1-11.5,16.1-17.2l1,1.3c-6.9,5.6-12,11.2-15.7,16.9c-4.5,6.9-7.1,14.3-7.3,21.5c-0.3,8.5,2.5,16.9,5.2,25
				C78.1,371.3,81.2,380.5,80.2,389.9z"/>
		</g>
		<g>
			<path class="st9" d="M65.1,357.7c-3.8-8.6-4.6-18.4-2.3-27.5c2.3-9.1,7.7-17.3,15.1-23c1.5-1.1,3-2.2,4.6-3.2
				c3.6-2.4,7.1-4.8,9.4-8.1l1.3,0.9c-2.6,3.6-6.3,6.1-9.9,8.5c-1.5,1-3,2.1-4.5,3.2c-7.2,5.5-12.3,13.4-14.6,22.1
				c-2.2,8.8-1.5,18.1,2.2,26.4L65.1,357.7z"/>
		</g>
		<g>
			<path class="st9" d="M78.6,365.8l-1.3-0.9c3.8-5.4,5.3-12.6,4.7-22.7c-0.1-2.3-0.3-4.7-0.6-7c-0.5-5.6-1-11.4-0.4-17.2
				c1.1-9.5,5.9-17.1,12.6-20.3l0.7,1.5c-6.3,2.9-10.6,10-11.7,19c-0.7,5.6-0.1,11.3,0.4,16.8c0.2,2.3,0.4,4.7,0.6,7.1
				C84.2,352.5,82.6,360.1,78.6,365.8z"/>
		</g>
		<g>
			<path class="st9" d="M79.2,382.8c-2.7-14.8-5.5-30.1-4.4-45.5c1.2-17.3,7.6-32,18-41.4l1.1,1.2c-10,9.2-16.2,23.5-17.4,40.4
				c-1.1,15.2,1.7,30.4,4.4,45.1L79.2,382.8z"/>
		</g>
		<g>
			<path class="st9" d="M75.3,387c-7.7-14.2-10.6-30.8-8-46.7c2.5-15.9,10.3-30.8,22-42l1.1,1.2c-11.4,10.9-19.1,25.5-21.5,41
				c-2.5,15.6,0.3,31.8,7.9,45.7L75.3,387z"/>
		</g>
		<g>
			<path class="st5" d="M88.3,295.2c1.5-1.9,4.8-1.9,6.4-0.1c1,1.1,1.1,2.7,0.7,4.1c-0.3,1-1.8,1.2-2.3,0.2
				c-0.8-1.4-2.2-2.4-3.8-2.6c-0.5-0.1-1.1-0.1-1.3-0.6C87.9,296,88.1,295.5,88.3,295.2z"/>
		</g>
	</g>
</g>
<g>
	<path class="st2" d="M212.4,431.7l-1.5,0.4c0-0.1,0-0.3-0.1-0.4l-0.9,0.2c-0.3-1.4-0.6-2.7-1.1-4l-1.6,0.5c0.5,1.4,0.8,2.9,1.1,4.4
		l-0.7,0.5c0,0.1,0.1,0.1,0.1,0.2l-0.1,0c0.6,1.5,0.9,3.1,1.2,4.7c0,5.5-1.6,11-4.5,15.7c-4.7,7.6-12.7,12.8-21.5,14l0.2,1.6
		c9.3-1.3,17.7-6.8,22.7-14.8c0.9-1.4,1.6-2.9,2.3-4.5c-0.7,2.7-1.8,5.4-3.2,8.1c-4.1,7.7-10.4,14.1-16.5,20.3l1.2,1.2
		c5.1-5.2,10.4-10.6,14.5-16.9c-3.8,7.4-8.8,14-13.4,19.5l1.3,1c3.9-4.7,8-10.2,11.6-16.2c-3.4,6.6-7.8,12.7-12.1,18.7l1.3,1
		c5.1-7.1,10.4-14.4,14.1-22.6c3.2-7,4.8-13.9,4.7-20.4c0.3-2.9,0.3-5.9-0.1-8.9c1.5,8.3,1.1,17.5-1.3,27.6
		c-2.5,10.3-6.7,20.4-10.4,29.3l1.5,0.6c3.8-9,8-19.1,10.5-29.5C214.4,451.5,214.7,441,212.4,431.7z"/>
	<g>
		<g>
			<g>
				<g>
					<g>
						<path class="st2" d="M119,344.5c-2.8,12.7-1.3,26.4,4.2,38.2c11.8,25.4,43.2,39.9,70.2,32.3c27-7.5,46.4-36.1,43.3-64
							c-3-27.9-28.1-51.6-56.1-53.2C152.6,296.2,125,317.1,119,344.5z"/>
					</g>
				</g>
			</g>
			<g>
				<g>
					<g>
						<path class="st4" d="M212.5,331.6c-7.1-15.4-20.4-28.7-38.1-33.8c-6.7,0.4-13.3,2-19.5,4.7c38.3,13.6,54.1,57,55,96.4
							c1.8,0.6,3.6,1.2,5.4,1.7C222.8,378.2,223.2,353.8,212.5,331.6z"/>
					</g>
				</g>
			</g>
			<g>
				<g>
					<g>
						<path class="st4" d="M209.9,407.1c0.1-2.7,0.1-5.4,0-8.2c-38.4-13.1-73.2-38.3-76.2-81.6c-1.5,1.6-2.9,3.2-4.2,4.9
							c-4.9,48.2,35.7,78.4,79.9,85.2C209.5,407.4,209.7,407.3,209.9,407.1z"/>
					</g>
				</g>
			</g>
			<g>
				<g>
					<g>
						<path class="st6" d="M160.6,357.7c8.1-10,20-17.8,33.4-21.9c9.1-2.8,17.7-3.6,25.6-2.4c5.2,0.8,10,2.5,14.2,5
							c-0.1-0.4-0.3-0.7-0.4-1.1c-4.1-2.3-8.7-3.8-13.6-4.6c-8-1.2-16.7-0.4-25.9,2.4c-13.6,4.2-25.6,12-33.8,22.2
							c-8.9,11-13.5,24.9-12.6,38.1c0.4,6,2,11.3,4.6,15.6c0.4,0.2,0.8,0.4,1.3,0.6c-2.9-4.3-4.6-9.9-5.1-16.2
							C147.3,382.2,151.9,368.6,160.6,357.7z"/>
					</g>
				</g>
				<g>
					<g>
						<path class="st6" d="M122,354.9c2.6-9.7,8.1-18.9,16-26.7c7-6.9,15.8-12.7,26.2-17.1c8.9-3.8,24.5-8.8,40.9-6
							c-0.7-0.4-1.3-0.7-2-1.1c-15.8-2-30.6,2.7-39.2,6.4c-10.5,4.5-19.4,10.3-26.5,17.3c-7.9,7.9-13.5,17.2-16.2,27
							c-1.5,5.6-2,11.3-1.9,17.1c0.3,1.1,0.6,2.2,0.9,3.2C119.8,368.2,120.2,361.4,122,354.9z"/>
					</g>
				</g>
				<g>
					<g>
						<path class="st6" d="M144.9,369.9c5.1-16.9,21.3-33.2,39.5-39.7c17-6.1,33.8-5.6,46.3,1.1c-0.2-0.4-0.4-0.8-0.6-1.2
							c-12.6-6.3-29.1-6.6-45.9-0.7c-18.4,6.6-34.8,23.1-40,40.2c-3.9,12.8-2.5,27,3.2,38.7c0.4,0.2,0.8,0.4,1.2,0.7
							C142.5,397.3,140.9,382.9,144.9,369.9z"/>
					</g>
				</g>
				<g>
					<g>
						<path class="st6" d="M136.3,320.5c15.5-14.3,37.4-21.7,58.4-20c-1-0.3-2.1-0.7-3.2-0.9c-20.2-0.7-40.9,6.7-55.8,20.4
							c-6.4,5.9-11.8,13.1-15.8,20.9c-0.4,1.2-0.7,2.4-1,3.7c0,0,0,0.1,0,0.1C123.1,335.5,129,327.2,136.3,320.5z"/>
					</g>
				</g>
			</g>
			<g>
				<g>
					<g>
						<path class="st2" d="M215.3,400.7c-0.3,1.1-0.7,2.1-1.1,3.1c1-0.8,2-1.7,2.9-2.6C216.6,401.1,216,400.9,215.3,400.7z"/>
					</g>
				</g>
			</g>
			<g>
				<g>
					<g>
						<path class="st2" d="M209.9,398.9c0.1,2.8,0.1,5.5,0,8.2c1.5-1,3-2.2,4.4-3.3c0.4-1,0.7-2.1,1.1-3.1
							C213.5,400.1,211.7,399.5,209.9,398.9z"/>
					</g>
				</g>
			</g>
			<g>
				<g>
					<g>
						<path class="st6" d="M234.6,356.1c-0.2-0.5-0.5-1-0.8-1.4c0,0,0-0.1,0-0.1l0,0.1c-0.9-1.4-2.2-2.7-3.5-3.8
							c-10.4-9-25.4-11.8-38.7-8.4c-13.3,3.4-24.8,12.5-32.5,23.9c-4.7,7.1-8.2,15.4-7.9,23.9c0.2,8.5,4.7,17.2,12.4,20.9
							c5.8,2.8,12.6,2.6,18.9,1.7c14.6-2,29.3-7.4,39.8-17.8c8.8-8.7,14.1-21.3,13-33.4C235.7,359.9,235.4,357.9,234.6,356.1z"/>
					</g>
				</g>
			</g>
			<g>
				<g>
					<g>
						<path class="st5" d="M171.7,403.1c3.7,0,7.4-0.4,11-1.2l-0.2-1c-16.2,3.6-34.3-1.3-46.7-12.3c-0.9-4.1-1.4-8.2-1.5-12.4
							c-0.1-8.9,1.9-17.8,5.7-25.8c7.3,15.9,19.6,29.8,34.5,39l0.5-0.9c-14.9-9.2-27-23-34.3-38.9c-0.1-0.2-0.1-0.3-0.2-0.5
							c2.3-4.7,5.2-9,8.7-12.9c8.3-9.3,19.8-16.2,33.3-20.1c3.2,2.7,6.1,5.6,8.8,8.8c10.6,12.4,17.2,28.1,18.6,44.3l1-0.1
							c-1.4-16.4-8.1-32.4-18.9-44.9c-2.6-3-5.4-5.8-8.4-8.4c0.5-0.1,1-0.3,1.6-0.4c10.7-2.7,20.5-3.1,29.2-1.1
							c0.2,0,0.4,0.1,0.6,0.1c2.5,2.7,4.8,5.7,6.8,8.8c9.1,14.6,11.4,33.2,6.2,49.6l1,0.3c5.3-16.7,2.9-35.6-6.3-50.5
							c-1.7-2.8-3.7-5.4-5.8-7.8c0.8,0.2,1.5,0.5,2.2,0.7c-0.5-0.6-1.1-1.1-1.7-1.6c-0.6-0.2-1.2-0.4-1.9-0.5
							c-2.1-2.3-4.4-4.4-6.9-6.3c-3-2-6.3-3.7-9.6-5.1c5.4,2.9,10.4,6.7,14.7,11.1c-8.6-1.8-18.3-1.4-28.8,1.3
							c-0.8,0.2-1.5,0.4-2.3,0.6c-7.2-6-15.5-10.8-24.4-14c-0.5,0.2-1,0.4-1.5,0.6c9,3.1,17.4,7.8,24.7,13.8
							c-13.5,4-24.9,11-33.1,20.2c-3.3,3.7-6.2,7.9-8.5,12.4c-4.1-9.5-6.4-19.7-7.1-30c-0.3,0.3-0.6,0.7-0.9,1
							c0.7,10.4,3.2,20.6,7.4,30.1c-4.1,8.4-6.3,17.7-6.2,27c0,3.8,0.4,7.5,1.2,11.2c-1-1-2.1-2-3-3.1c-8.7-9.9-13.4-23.4-13.1-36.7
							c-0.4,2.3-0.6,4.6-0.7,6.9c1.2,11.2,5.7,22.1,13.1,30.5c1.3,1.5,2.7,2.9,4.2,4.2c1.2,5,3,9.9,5.4,14.5c0.7,0.5,1.3,1,2,1.5
							c-2.7-4.7-4.7-9.7-6.1-14.9C146,398.5,158.9,403.1,171.7,403.1z"/>
					</g>
				</g>
			</g>
			<g>
				<g>
					<g>
						<g>
							<g>
								<path class="st5" d="M230.6,373.7c-1-1.6-4.9-7-5.9-8.3c-3-4.5-8.4-6.8-13.7-7.7c-13.1-2.1-26.4,3.5-36.7,11.8
									c-4.8,3.9-9.1,8.6-11.4,14.3c-2.2,5.7-2,12.7,1.7,17.6c1,1.3,4.7,6.8,5.9,8.3c3.6,4.7,9.6,6.8,15.5,7.4
									c16.6,1.8,34-6.7,42.7-21C232.9,389.4,235,380.3,230.6,373.7z"/>
							</g>
						</g>
					</g>
					<g>
						<g>
							<g>
								<path class="st3" d="M209.7,357.6c-5-0.6-10.1-0.1-15,1.2c12,13.5,20.1,29.8,26.3,46.7c3-2.7,5.6-5.8,7.7-9.3
									c0.6-1,1.1-2,1.6-3.1C224.5,380.7,217.9,368.7,209.7,357.6z"/>
							</g>
						</g>
					</g>
					<g>
						<g>
							<g>
								<path class="st3" d="M216.1,367.2c-12.5-2-25.2,3.3-35,11.3c-4.6,3.7-8.7,8.2-10.9,13.7c-2.1,5.5-1.9,12.1,1.6,16.8
									c3.4,4.5,9.2,6.5,14.8,7.1c15.9,1.7,32.5-6.4,40.8-20c4-6.5,6-15.2,1.8-21.5C226.4,370.2,221.2,368,216.1,367.2z"/>
							</g>
						</g>
					</g>
					<g>
						<g>
							<g>
								<path class="st7" d="M214.5,369.7c-11.2-1.8-22.6,3-31.4,10.1c-4.1,3.3-7.8,7.3-9.7,12.3c-1.9,4.9-1.7,10.9,1.5,15.1
									c3.1,4,8.3,5.8,13.3,6.3c14.3,1.6,29.1-5.7,36.6-18c3.6-5.8,5.4-13.6,1.6-19.3C223.7,372.4,219,370.4,214.5,369.7z"/>
							</g>
						</g>
					</g>
					<g>
						<g>
							<g>
								<g>
									<path class="st8" d="M175.3,382.1c0.9-1.2,1.9-2.3,3-3.4c-2.1-2-4-4.1-5.7-6.4c-1.4,1.3-2.7,2.7-3.9,4.2
										C170.9,378.4,173.1,380.3,175.3,382.1z"/>
								</g>
							</g>
						</g>
						<g>
							<g>
								<g>
									<path class="st8" d="M167,378.6c-0.3,0.5-0.7,0.9-1,1.4c1.8,1.5,3.3,3.2,5.1,4.6c0.5,0.4,1,0.8,1.5,1.1
										c0.3-0.5,0.6-0.9,0.9-1.4C171.5,382.4,169.3,380.5,167,378.6z"/>
								</g>
							</g>
						</g>
						<g>
							<g>
								<g>
									<path class="st8" d="M166.7,390.1c0.8,0.8,1.7,1.7,2.6,2.5c0.6-1.6,1.3-3.1,2.1-4.5c-0.4-0.3-0.7-0.5-1.1-0.8
										c-1.9-1.5-3.7-3.3-5.6-4.9c-0.7,1.4-1.3,2.9-1.6,4.4C164.4,387.7,165.5,388.9,166.7,390.1z"/>
								</g>
							</g>
						</g>
						<g>
							<g>
								<g>
									<path class="st8" d="M168.3,395.5c-0.6-0.6-1.2-1.2-1.8-1.8c-1.2-1.2-2.4-2.7-3.8-3.9c0,0.6,0,1.1,0,1.7
										c0.3,4.8,2.8,9.1,5.3,13.2C166.8,401.8,167.4,398.5,168.3,395.5C168.3,395.5,168.3,395.5,168.3,395.5z"/>
								</g>
							</g>
						</g>
					</g>
				</g>
				<g>
					<g>
						<path class="st3" d="M228.5,388.3l-21.3-2.8c0.9-2.2,1.2-4.8-0.1-6.7c-1.1-1.7-3.1-2.5-5.1-2.8c-3.3-0.5-6.7,0.3-9.7,1.8
							c-1.2-1-2.2-2.3-2.9-3.7l-0.9,0.4c0.7,1.4,1.7,2.7,2.9,3.8c-1,0.6-2,1.3-2.9,2c-1.8,1.4-3.4,3.2-4.2,5.3
							c-0.8,2.1-0.8,4.7,0.6,6.5c1.3,1.7,3.4,2.4,5.4,2.7c-2.5,6.4-5.3,12.7-8.3,18.9l-0.8,1.6l2.1-1.3l-0.2-0.3
							c3-6.1,5.7-12.4,8.2-18.8c5.9,0.4,12-2.7,15.1-7.8c0.1-0.2,0.2-0.4,0.4-0.6l21.6,2.8L228.5,388.3z"/>
					</g>
				</g>
			</g>
		</g>
		<g>
			<g>
				<path class="st3" d="M203.6,485.7l-1.5-0.7c14.4-30.5,10.7-69.3-9.2-96.6l1.3-1C214.5,415.2,218.3,454.7,203.6,485.7z"/>
			</g>
		</g>
		<g>
			<g>
				<path class="st3" d="M150.1,0h-1.6c-3.7,51.7-7.5,104.2-5.7,156.4c2.7,78.3,17,144.1,42.9,201.3l1.5-0.7
					c-25.9-57-39.9-122.7-42.8-200.7C142.5,104.1,145.7,51.6,150.1,0z"/>
			</g>
		</g>
		<g>
			<g>
				<path class="st9" d="M186.4,488.2l-1-1.3c17.1-13.5,25.8-37,21.7-58.4l1.6-0.3C212.9,450.2,203.9,474.3,186.4,488.2z"/>
			</g>
		</g>
		<g>
			<g>
				<path class="st9" d="M199.8,487.6l-1.4-0.9c10.9-16.9,14.3-38.5,9.2-58l1.6-0.4C214.5,448.2,210.9,470.3,199.8,487.6z"/>
			</g>
		</g>
		<g>
			<g>
				<path class="st9" d="M194.4,491.1l-1.3-1.1c13.6-16.1,18.9-38.8,13.8-59.3l1.6-0.4C213.8,451.3,208.4,474.6,194.4,491.1z"/>
			</g>
		</g>
		<g>
			<g>
				<path class="st9" d="M194.1,460.8c-3.5,0-6.9-1.5-9.2-4.1c-3-3.5-3.7-8.9-1.6-13l1.5,0.7c-1.8,3.6-1.2,8.2,1.4,11.2
					c2.6,3,7.1,4.3,10.9,3.1c5.5-1.7,8.5-7.7,9.4-12.8c0.6-3.1,0.7-6.3,0.8-9.4c0.1-2.6,0.2-5.3,0.6-8l1.6,0.2
					c-0.4,2.6-0.5,5.3-0.6,7.8c-0.1,3.2-0.2,6.5-0.9,9.7c-1.1,5.5-4.4,12.1-10.5,14C196.4,460.7,195.2,460.8,194.1,460.8z"/>
			</g>
		</g>
		<g>
			<g>
				<path class="st9" d="M184.3,476.8l-0.7-1.5c8.7-3.9,16-10.8,20.4-19.3c4.4-8.5,5.8-18.4,4-27.8l1.6-0.3c1.9,9.8,0.4,20-4.2,28.9
					C200.9,465.6,193.4,472.7,184.3,476.8z"/>
			</g>
		</g>
		<g>
			<g>
				<path class="st9" d="M210.9,478.6l-1.1-1.2c3.7-3.4,5.9-8.9,5.9-15.2c0.1-5.5-1.3-11.1-2.7-16.4l-0.1-0.6
					c-1.6-6.2-2.8-11.7-2.5-17.5l1.6,0.1c-0.3,5.5,0.9,10.9,2.4,17l0.1,0.6c1.4,5.5,2.8,11.1,2.7,16.8
					C217.3,468.9,214.9,474.9,210.9,478.6z"/>
			</g>
		</g>
	</g>
	<g>
		<path class="st5" d="M207.5,434.3c1.6-2.8,2.4-2.9,5.4-1.7c-0.8-2,0.7-4.9-1.4-5.5c-2-0.6-4.4,0.1-5.5,1.9
			C204.9,430.8,205.5,433.5,207.5,434.3z"/>
	</g>
</g>
</svg>
