<?xml version="1.0" encoding="utf-8"?>
<!-- Generator: Adobe Illustrator 21.0.0, SVG Export Plug-In . SVG Version: 6.00 Build 0)  -->
<svg version="1.1" id="Layer_1" xmlns="http://www.w3.org/2000/svg" xmlns:xlink="http://www.w3.org/1999/xlink" x="0px" y="0px"
	 viewBox="0 0 694.4 349.2" style="enable-background:new 0 0 694.4 349.2;" xml:space="preserve">
<style type="text/css">
	.st0{fill:#BB2326;}
	.st1{fill:#FFFFFF;}
	.st2{fill:#EF4F50;}
	.st3{fill:#F16A28;}
	.st4{fill:#ED3434;}
	.st5{fill:#F9A63F;}
	.st6{fill:#C92027;}
	.st7{fill:#5B0A12;}
	.st8{fill:#FBF5E4;}
	.st9{fill:#F48048;}
	.st10{fill:none;stroke:url(#SVGID_1_);stroke-width:7;stroke-miterlimit:10;}
	.st11{fill:none;stroke:url(#SVGID_2_);stroke-width:7;stroke-miterlimit:10;}
	.st12{fill:none;stroke:url(#SVGID_3_);stroke-width:7;stroke-miterlimit:10;}
	.st13{fill:none;stroke:url(#SVGID_4_);stroke-width:7;stroke-miterlimit:10;}
	.st14{fill:none;stroke:url(#SVGID_5_);stroke-width:7;stroke-miterlimit:10;}
	.st15{fill:none;stroke:url(#SVGID_6_);stroke-width:7;stroke-miterlimit:10;}
	.st16{fill:none;stroke:url(#SVGID_7_);stroke-width:7;stroke-miterlimit:10;}
	.st17{fill:none;stroke:url(#SVGID_8_);stroke-width:7;stroke-miterlimit:10;}
	.st18{fill:none;stroke:url(#SVGID_9_);stroke-width:7;stroke-miterlimit:10;}
	.st19{fill:none;stroke:url(#SVGID_10_);stroke-width:7;stroke-miterlimit:10;}
	.st20{fill:none;stroke:url(#SVGID_11_);stroke-width:7;stroke-miterlimit:10;}
	.st21{fill:#FCBB51;}
	.st22{fill:#F8D9B2;}
	.st23{fill:none;stroke:url(#SVGID_12_);stroke-width:7;stroke-miterlimit:10;}
	.st24{clip-path:url(#SVGID_14_);}
	.st25{clip-path:url(#SVGID_16_);}
	.st26{clip-path:url(#SVGID_18_);}
	.st27{fill:url(#SVGID_19_);}
	.st28{fill:#9A1B1F;}
	.st29{fill:none;stroke:url(#SVGID_20_);stroke-width:7;stroke-miterlimit:10;}
	.st30{fill:none;stroke:url(#SVGID_21_);stroke-width:7;stroke-miterlimit:10;}
	.st31{fill:none;stroke:url(#SVGID_22_);stroke-width:7;stroke-miterlimit:10;}
	.st32{fill:none;stroke:url(#SVGID_23_);stroke-width:7;stroke-miterlimit:10;}
	.st33{fill:none;stroke:url(#SVGID_24_);stroke-width:7;stroke-miterlimit:10;}
	.st34{fill:none;stroke:url(#SVGID_25_);stroke-width:7;stroke-miterlimit:10;}
	.st35{fill:none;stroke:url(#SVGID_26_);stroke-width:7;stroke-miterlimit:10;}
	.st36{fill:none;stroke:url(#SVGID_27_);stroke-width:7;stroke-miterlimit:10;}
	.st37{fill:none;stroke:url(#SVGID_28_);stroke-width:7;stroke-miterlimit:10;}
	.st38{fill:none;stroke:url(#SVGID_29_);stroke-width:7;stroke-miterlimit:10;}
	.st39{fill:none;stroke:url(#SVGID_30_);stroke-width:7;stroke-miterlimit:10;}
	.st40{fill:none;stroke:url(#SVGID_31_);stroke-width:7;stroke-miterlimit:10;}
	.st41{fill:none;stroke:url(#SVGID_32_);stroke-width:7;stroke-miterlimit:10;}
	.st42{fill:none;stroke:url(#SVGID_33_);stroke-width:7;stroke-miterlimit:10;}
	.st43{fill:none;stroke:url(#SVGID_34_);stroke-width:7;stroke-miterlimit:10;}
	.st44{fill:none;stroke:url(#SVGID_35_);stroke-width:7;stroke-miterlimit:10;}
	.st45{fill:none;stroke:url(#SVGID_36_);stroke-width:7;stroke-miterlimit:10;}
	.st46{fill:none;stroke:url(#SVGID_37_);stroke-width:7;stroke-miterlimit:10;}
	.st47{fill:none;stroke:url(#SVGID_38_);stroke-width:7;stroke-miterlimit:10;}
	.st48{fill:none;stroke:url(#SVGID_39_);stroke-width:7;stroke-miterlimit:10;}
	.st49{fill:none;stroke:url(#SVGID_40_);stroke-width:7;stroke-miterlimit:10;}
	.st50{fill:none;stroke:url(#SVGID_41_);stroke-width:7;stroke-miterlimit:10;}
	.st51{fill:none;stroke:url(#SVGID_42_);stroke-width:7;stroke-miterlimit:10;}
	.st52{clip-path:url(#SVGID_44_);}
	.st53{clip-path:url(#SVGID_46_);}
	.st54{clip-path:url(#SVGID_48_);}
	.st55{clip-path:url(#SVGID_50_);}
	.st56{clip-path:url(#SVGID_52_);}
	.st57{clip-path:url(#SVGID_54_);}
	.st58{fill:url(#SVGID_55_);}
	.st59{clip-path:url(#SVGID_57_);}
	.st60{clip-path:url(#SVGID_59_);}
</style>
<g>
	<g>
		<path class="st1" d="M103.4,150.1V41.2h29.9V124h49.3v26.1H103.4z"/>
		<path class="st1" d="M238.9,150.8c-8.7,0-16.1-1.4-22.4-4.3c-6.2-2.9-11.3-6.8-15.2-11.8c-3.9-5-6.8-10.7-8.7-17.2
			c-1.8-6.5-2.8-13.3-2.8-20.4V41.2h29.9v55.8c0,3.6,0.4,7,1.1,10.2c0.7,3.3,1.8,6.2,3.4,8.7c1.5,2.5,3.5,4.6,5.9,6
			c2.4,1.5,5.3,2.2,8.8,2.2c3.6,0,6.6-0.7,9-2.2c2.5-1.5,4.4-3.5,5.9-6.1c1.5-2.6,2.6-5.5,3.3-8.8c0.7-3.3,1.1-6.6,1.1-10.1V41.2
			h29.9v55.9c0,7.6-1,14.6-3,21.1c-2,6.5-5,12.2-9,17.1c-4,4.9-9.1,8.7-15.2,11.4C254.7,149.5,247.4,150.8,238.9,150.8z"/>
		<path class="st1" d="M299.3,94.6c0-6.6,1.2-13.2,3.8-19.5c2.5-6.4,6.2-12.2,11-17.4c4.8-5.2,10.7-9.4,17.5-12.5
			c6.9-3.1,14.7-4.7,23.4-4.7c10.4,0,19.5,2.2,27.3,6.5c7.8,4.3,13.5,10.1,17.3,17.2l-22.8,16.2c-1.3-3.6-3.2-6.3-5.7-8.3
			c-2.5-1.9-5.2-3.3-8.1-4.1c-2.9-0.8-5.7-1.1-8.5-1.1c-4.3,0-8,0.8-11.1,2.5c-3.1,1.7-5.7,3.9-7.7,6.7c-2,2.8-3.5,5.8-4.4,9.2
			c-1,3.4-1.5,6.7-1.5,10.1c0,3.8,0.6,7.4,1.7,10.9c1.1,3.5,2.8,6.6,4.9,9.3c2.1,2.7,4.8,4.8,7.9,6.4c3.1,1.5,6.6,2.3,10.5,2.3
			c2.8,0,5.6-0.4,8.4-1.3c2.9-0.9,5.5-2.3,7.8-4.2c2.3-1.9,4.1-4.5,5.4-7.8l24.4,14.6c-2.1,5.3-5.7,9.9-10.7,13.6
			c-5,3.8-10.7,6.7-17,8.7c-6.3,2-12.6,3-18.8,3c-8.1,0-15.5-1.6-22.1-4.8c-6.7-3.2-12.5-7.5-17.3-12.9c-4.9-5.4-8.6-11.4-11.3-18.1
			C300.6,108.3,299.3,101.5,299.3,94.6z"/>
		<path class="st1" d="M411.2,150.1V41.2H441v41.4l33.1-41.4h33.7L468.3,90l42.3,60.1h-34.3l-27-40l-8.3,8.6v31.4H411.2z"/>
		<path class="st1" d="M539,41.2l19.5,44.4l19.9-44.4h32.5L573.3,114v36h-29.7v-36.3l-36.9-72.5H539z"/>
		<path class="st1" d="M66.7,199.2h33.4L134.8,308h-30.3l-5.6-21.3H68.1L62.5,308H32L66.7,199.2z M93.6,266.8l-10.1-38.3l-10.1,38.3
			H93.6z"/>
		<path class="st1" d="M173.7,254.5V308h-29.9V199.2h23.3l43.7,55.3v-55.3h29.9V308h-23.8L173.7,254.5z"/>
		<path class="st1" d="M306.4,308.8c-7,0-13.8-1.2-20.2-3.8c-6.4-2.5-12-6.2-16.9-11c-4.9-4.9-8.8-10.7-11.6-17.6
			c-2.8-6.9-4.2-14.8-4.2-23.7c0-7.7,1.4-14.8,4.3-21.3c2.9-6.5,6.8-12.3,11.9-17.2c5.1-5,11-8.8,17.7-11.6c6.7-2.8,14-4.1,21.9-4.1
			c9.8,0,18.7,2.1,26.7,6.4c8,4.2,13.9,10,17.8,17.4l-22.2,17c-2.1-4.3-5.4-7.7-9.7-10.3c-4.3-2.6-8.8-3.9-13.6-3.9
			c-3.6,0-6.8,0.7-9.8,2.1c-3,1.4-5.5,3.4-7.7,6c-2.2,2.6-3.9,5.6-5.1,9.1c-1.2,3.5-1.8,7.4-1.8,11.6c0,4.3,0.6,8.2,1.8,11.6
			c1.2,3.5,2.9,6.5,5.1,9c2.2,2.5,4.8,4.4,7.9,5.8c3.1,1.4,6.5,2.1,10.3,2.1c4.8,0,9.4-1.2,13.8-3.6c4.4-2.4,8.4-5.8,12-10.2v29.1
			C326.6,305,317.1,308.8,306.4,308.8z M333.2,271.5h-20.1v-21.5h44.7V308h-24.7V271.5z"/>
		<path class="st1" d="M372.6,308V199.2h46.9c5.3,0,10.2,1.1,14.7,3.2c4.5,2.1,8.4,5,11.6,8.7c3.3,3.6,5.8,7.7,7.6,12.2
			c1.8,4.5,2.7,9,2.7,13.6c0,6.4-1.5,12.5-4.5,18.2c-3,5.7-7.2,10.4-12.6,14c-5.4,3.6-11.6,5.4-18.8,5.4h-17.8V308H372.6z
			 M402.5,248.5h15.8c1.2,0,2.4-0.4,3.5-1.1c1.1-0.7,2.1-1.9,2.8-3.7c0.8-1.7,1.1-4,1.1-6.9c0-3.1-0.4-5.4-1.3-7.1
			c-0.9-1.7-1.9-2.9-3.2-3.5c-1.3-0.7-2.5-1-3.8-1h-15V248.5z"/>
		<path class="st1" d="M485.3,199.2h33.4L553.3,308H523l-5.6-21.3h-30.7L481,308h-30.5L485.3,199.2z M512.1,266.8L502,228.5
			l-10.1,38.3H512.1z"/>
		<path class="st1" d="M606.9,308.8c-8.3,0-15.8-1.6-22.5-4.7c-6.7-3.1-12.5-7.3-17.4-12.6c-4.9-5.3-8.6-11.2-11.2-17.8
			c-2.6-6.6-3.9-13.4-3.9-20.5c0-7.3,1.4-14.1,4.1-20.7c2.8-6.5,6.6-12.4,11.6-17.5c5-5.2,10.8-9.2,17.6-12.2
			c6.8-3,14.2-4.4,22.3-4.4c8.3,0,15.8,1.6,22.5,4.7c6.7,3.1,12.5,7.3,17.3,12.6c4.8,5.3,8.5,11.3,11.1,17.9
			c2.6,6.6,3.9,13.4,3.9,20.3c0,7.2-1.4,14-4.1,20.5c-2.7,6.5-6.5,12.4-11.5,17.5c-5,5.2-10.8,9.2-17.5,12.3
			C622.6,307.3,615.1,308.8,606.9,308.8z M582.3,253.6c0,3.7,0.5,7.2,1.5,10.7c1,3.4,2.6,6.5,4.6,9.2c2,2.7,4.6,4.9,7.7,6.4
			c3.1,1.6,6.8,2.4,11.1,2.4c4.3,0,8-0.8,11.2-2.5c3.2-1.6,5.7-3.9,7.7-6.7c2-2.8,3.5-5.9,4.4-9.3c1-3.4,1.5-6.9,1.5-10.5
			c0-3.7-0.5-7.2-1.5-10.6c-1-3.4-2.6-6.4-4.6-9.1c-2-2.7-4.7-4.8-7.8-6.4c-3.2-1.5-6.8-2.3-11-2.3c-4.3,0-8,0.8-11.1,2.5
			c-3.1,1.6-5.7,3.8-7.7,6.5c-2,2.7-3.6,5.8-4.5,9.2C582.7,246.5,582.3,250,582.3,253.6z"/>
	</g>
	<g>
		<linearGradient id="SVGID_1_" gradientUnits="userSpaceOnUse" x1="99.9476" y1="95.6484" x2="186.1749" y2="95.6484">
			<stop  offset="0" style="stop-color:#EBD385"/>
			<stop  offset="0.3075" style="stop-color:#F9F7CD"/>
			<stop  offset="0.6301" style="stop-color:#EBD385"/>
			<stop  offset="1" style="stop-color:#BC8E2D"/>
		</linearGradient>
		<path class="st10" d="M103.4,150.1V41.2h29.9V124h49.3v26.1H103.4z"/>
		<linearGradient id="SVGID_2_" gradientUnits="userSpaceOnUse" x1="186.3783" y1="96.0315" x2="291.6075" y2="96.0315">
			<stop  offset="0" style="stop-color:#EBD385"/>
			<stop  offset="0.3075" style="stop-color:#F9F7CD"/>
			<stop  offset="0.6301" style="stop-color:#EBD385"/>
			<stop  offset="1" style="stop-color:#BC8E2D"/>
		</linearGradient>
		<path class="st11" d="M238.9,150.8c-8.7,0-16.1-1.4-22.4-4.3c-6.2-2.9-11.3-6.8-15.2-11.8c-3.9-5-6.8-10.7-8.7-17.2
			c-1.8-6.5-2.8-13.3-2.8-20.4V41.2h29.9v55.8c0,3.6,0.4,7,1.1,10.2c0.7,3.3,1.8,6.2,3.4,8.7c1.5,2.5,3.5,4.6,5.9,6
			c2.4,1.5,5.3,2.2,8.8,2.2c3.6,0,6.6-0.7,9-2.2c2.5-1.5,4.4-3.5,5.9-6.1c1.5-2.6,2.6-5.5,3.3-8.8c0.7-3.3,1.1-6.6,1.1-10.1V41.2
			h29.9v55.9c0,7.6-1,14.6-3,21.1c-2,6.5-5,12.2-9,17.1c-4,4.9-9.1,8.7-15.2,11.4C254.7,149.5,247.4,150.8,238.9,150.8z"/>
		<linearGradient id="SVGID_3_" gradientUnits="userSpaceOnUse" x1="295.7942" y1="95.6484" x2="404.956" y2="95.6484">
			<stop  offset="0" style="stop-color:#EBD385"/>
			<stop  offset="0.3075" style="stop-color:#F9F7CD"/>
			<stop  offset="0.6301" style="stop-color:#EBD385"/>
			<stop  offset="1" style="stop-color:#BC8E2D"/>
		</linearGradient>
		<path class="st12" d="M299.3,94.6c0-6.6,1.2-13.2,3.8-19.5c2.5-6.4,6.2-12.2,11-17.4c4.8-5.2,10.7-9.4,17.5-12.5
			c6.9-3.1,14.7-4.7,23.4-4.7c10.4,0,19.5,2.2,27.3,6.5c7.8,4.3,13.5,10.1,17.3,17.2l-22.8,16.2c-1.3-3.6-3.2-6.3-5.7-8.3
			c-2.5-1.9-5.2-3.3-8.1-4.1c-2.9-0.8-5.7-1.1-8.5-1.1c-4.3,0-8,0.8-11.1,2.5c-3.1,1.7-5.7,3.9-7.7,6.7c-2,2.8-3.5,5.8-4.4,9.2
			c-1,3.4-1.5,6.7-1.5,10.1c0,3.8,0.6,7.4,1.7,10.9c1.1,3.5,2.8,6.6,4.9,9.3c2.1,2.7,4.8,4.8,7.9,6.4c3.1,1.5,6.6,2.3,10.5,2.3
			c2.8,0,5.6-0.4,8.4-1.3c2.9-0.9,5.5-2.3,7.8-4.2c2.3-1.9,4.1-4.5,5.4-7.8l24.4,14.6c-2.1,5.3-5.7,9.9-10.7,13.6
			c-5,3.8-10.7,6.7-17,8.7c-6.3,2-12.6,3-18.8,3c-8.1,0-15.5-1.6-22.1-4.8c-6.7-3.2-12.5-7.5-17.3-12.9c-4.9-5.4-8.6-11.4-11.3-18.1
			C300.6,108.3,299.3,101.5,299.3,94.6z"/>
		<linearGradient id="SVGID_4_" gradientUnits="userSpaceOnUse" x1="407.6608" y1="95.6484" x2="517.3615" y2="95.6484">
			<stop  offset="0" style="stop-color:#EBD385"/>
			<stop  offset="0.3075" style="stop-color:#F9F7CD"/>
			<stop  offset="0.6301" style="stop-color:#EBD385"/>
			<stop  offset="1" style="stop-color:#BC8E2D"/>
		</linearGradient>
		<path class="st13" d="M411.2,150.1V41.2H441v41.4l33.1-41.4h33.7L468.3,90l42.3,60.1h-34.3l-27-40l-8.3,8.6v31.4H411.2z"/>
		<linearGradient id="SVGID_5_" gradientUnits="userSpaceOnUse" x1="500.9188" y1="95.6484" x2="616.5798" y2="95.6484">
			<stop  offset="0" style="stop-color:#EBD385"/>
			<stop  offset="0.3075" style="stop-color:#F9F7CD"/>
			<stop  offset="0.6301" style="stop-color:#EBD385"/>
			<stop  offset="1" style="stop-color:#BC8E2D"/>
		</linearGradient>
		<path class="st14" d="M539,41.2l19.5,44.4l19.9-44.4h32.5L573.3,114v36h-29.7v-36.3l-36.9-72.5H539z"/>
		<linearGradient id="SVGID_6_" gradientUnits="userSpaceOnUse" x1="27.1654" y1="253.5908" x2="139.5726" y2="253.5908">
			<stop  offset="0" style="stop-color:#EBD385"/>
			<stop  offset="0.3075" style="stop-color:#F9F7CD"/>
			<stop  offset="0.6301" style="stop-color:#EBD385"/>
			<stop  offset="1" style="stop-color:#BC8E2D"/>
		</linearGradient>
		<path class="st15" d="M66.7,199.2h33.4L134.8,308h-30.3l-5.6-21.3H68.1L62.5,308H32L66.7,199.2z M93.6,266.8l-10.1-38.3
			l-10.1,38.3H93.6z"/>
		<linearGradient id="SVGID_7_" gradientUnits="userSpaceOnUse" x1="140.3256" y1="253.5908" x2="244.176" y2="253.5908">
			<stop  offset="0" style="stop-color:#EBD385"/>
			<stop  offset="0.3075" style="stop-color:#F9F7CD"/>
			<stop  offset="0.6301" style="stop-color:#EBD385"/>
			<stop  offset="1" style="stop-color:#BC8E2D"/>
		</linearGradient>
		<path class="st16" d="M173.7,254.5V308h-29.9V199.2h23.3l43.7,55.3v-55.3h29.9V308h-23.8L173.7,254.5z"/>
		<linearGradient id="SVGID_8_" gradientUnits="userSpaceOnUse" x1="250.0478" y1="253.5908" x2="361.4074" y2="253.5908">
			<stop  offset="0" style="stop-color:#EBD385"/>
			<stop  offset="0.3075" style="stop-color:#F9F7CD"/>
			<stop  offset="0.6301" style="stop-color:#EBD385"/>
			<stop  offset="1" style="stop-color:#BC8E2D"/>
		</linearGradient>
		<path class="st17" d="M313.2,250.1v21.5H332c-2.8,2.9-5.9,5.3-9.2,7.1c-4.4,2.4-9,3.6-13.8,3.6c-3.8,0-7.2-0.7-10.3-2.1
			c-3.1-1.4-5.7-3.3-7.9-5.8c-2.2-2.5-3.9-5.5-5.1-9c-1.2-3.5-1.8-7.4-1.8-11.6c0-4.2,0.6-8,1.8-11.6c1.2-3.5,2.9-6.6,5.1-9.1
			c2.2-2.6,4.8-4.5,7.7-6c3-1.4,6.2-2.1,9.8-2.1c4.8,0,9.3,1.3,13.6,3.9c4.3,2.6,7.5,6.1,9.7,10.3l22.2-17
			c-3.9-7.4-9.8-13.2-17.8-17.4c-8-4.2-16.9-6.4-26.7-6.4c-7.9,0-15.2,1.4-21.9,4.1c-6.7,2.8-12.6,6.6-17.7,11.6
			c-5.1,5-9,10.7-11.9,17.2c-2.9,6.5-4.3,13.6-4.3,21.3c0,8.9,1.4,16.8,4.2,23.7c2.8,6.9,6.7,12.8,11.6,17.6
			c4.9,4.9,10.5,8.5,16.9,11c6.4,2.5,13.1,3.8,20.2,3.8c10.1,0,19-3.3,26.8-9.8v9.1h24.7v-57.9H313.2z"/>
		<linearGradient id="SVGID_9_" gradientUnits="userSpaceOnUse" x1="369.1182" y1="253.5908" x2="459.6362" y2="253.5908">
			<stop  offset="0" style="stop-color:#EBD385"/>
			<stop  offset="0.3075" style="stop-color:#F9F7CD"/>
			<stop  offset="0.6301" style="stop-color:#EBD385"/>
			<stop  offset="1" style="stop-color:#BC8E2D"/>
		</linearGradient>
		<path class="st18" d="M372.6,308V199.2h46.9c5.3,0,10.2,1.1,14.7,3.2c4.5,2.1,8.4,5,11.6,8.7c3.3,3.6,5.8,7.7,7.6,12.2
			c1.8,4.5,2.7,9,2.7,13.6c0,6.4-1.5,12.5-4.5,18.2c-3,5.7-7.2,10.4-12.6,14c-5.4,3.6-11.6,5.4-18.8,5.4h-17.8V308H372.6z
			 M402.5,248.5h15.8c1.2,0,2.4-0.4,3.5-1.1c1.1-0.7,2.1-1.9,2.8-3.7c0.8-1.7,1.1-4,1.1-6.9c0-3.1-0.4-5.4-1.3-7.1
			c-0.9-1.7-1.9-2.9-3.2-3.5c-1.3-0.7-2.5-1-3.8-1h-15V248.5z"/>
		<linearGradient id="SVGID_10_" gradientUnits="userSpaceOnUse" x1="445.6728" y1="253.5908" x2="558.0805" y2="253.5908">
			<stop  offset="0" style="stop-color:#EBD385"/>
			<stop  offset="0.3075" style="stop-color:#F9F7CD"/>
			<stop  offset="0.6301" style="stop-color:#EBD385"/>
			<stop  offset="1" style="stop-color:#BC8E2D"/>
		</linearGradient>
		<path class="st19" d="M485.3,199.2h33.4L553.3,308H523l-5.6-21.3h-30.7L481,308h-30.5L485.3,199.2z M512.1,266.8L502,228.5
			l-10.1,38.3H512.1z"/>
		<linearGradient id="SVGID_11_" gradientUnits="userSpaceOnUse" x1="548.4141" y1="253.5908" x2="665.9029" y2="253.5908">
			<stop  offset="0" style="stop-color:#EBD385"/>
			<stop  offset="0.3075" style="stop-color:#F9F7CD"/>
			<stop  offset="0.6301" style="stop-color:#EBD385"/>
			<stop  offset="1" style="stop-color:#BC8E2D"/>
		</linearGradient>
		<path class="st20" d="M606.9,308.8c-8.3,0-15.8-1.6-22.5-4.7c-6.7-3.1-12.5-7.3-17.4-12.6c-4.9-5.3-8.6-11.2-11.2-17.8
			c-2.6-6.6-3.9-13.4-3.9-20.5c0-7.3,1.4-14.1,4.1-20.7c2.8-6.5,6.6-12.4,11.6-17.5c5-5.2,10.8-9.2,17.6-12.2
			c6.8-3,14.2-4.4,22.3-4.4c8.3,0,15.8,1.6,22.5,4.7c6.7,3.1,12.5,7.3,17.3,12.6c4.8,5.3,8.5,11.3,11.1,17.9
			c2.6,6.6,3.9,13.4,3.9,20.3c0,7.2-1.4,14-4.1,20.5c-2.7,6.5-6.5,12.4-11.5,17.5c-5,5.2-10.8,9.2-17.5,12.3
			C622.6,307.3,615.1,308.8,606.9,308.8z M582.3,253.6c0,3.7,0.5,7.2,1.5,10.7c1,3.4,2.6,6.5,4.6,9.2c2,2.7,4.6,4.9,7.7,6.4
			c3.1,1.6,6.8,2.4,11.1,2.4c4.3,0,8-0.8,11.2-2.5c3.2-1.6,5.7-3.9,7.7-6.7c2-2.8,3.5-5.9,4.4-9.3c1-3.4,1.5-6.9,1.5-10.5
			c0-3.7-0.5-7.2-1.5-10.6c-1-3.4-2.6-6.4-4.6-9.1c-2-2.7-4.7-4.8-7.8-6.4c-3.2-1.5-6.8-2.3-11-2.3c-4.3,0-8,0.8-11.1,2.5
			c-3.1,1.6-5.7,3.8-7.7,6.5c-2,2.7-3.6,5.8-4.5,9.2C582.7,246.5,582.3,250,582.3,253.6z"/>
	</g>
</g>
</svg>
